<?xml version="1.0" encoding="utf-8"?>
<!-- Generator: Adobe Illustrator 21.1.0, SVG Export Plug-In . SVG Version: 6.00 Build 0)  -->
<svg version="1.1" id="Layer_1" xmlns="http://www.w3.org/2000/svg" xmlns:xlink="http://www.w3.org/1999/xlink" x="0px" y="0px"
	 viewBox="0 0 412 229" style="enable-background:new 0 0 412 229;" xml:space="preserve">
<style type="text/css">
	.st0{fill:#606060;}
	.st1{fill:url(#SVGID_1_);}
	.st2{fill:url(#SVGID_2_);}
	.st3{fill:url(#SVGID_3_);}
	.st4{fill:#353434;}
	.st5{fill:#474646;}
	.st6{fill:#070707;}
	.st7{fill:url(#SVGID_4_);stroke:#000000;stroke-width:0.25;stroke-miterlimit:10;}
	.st8{fill:#3F3D3D;}
	.st9{fill:#636363;}
	.st10{fill:#212121;}
	.st11{fill:#232323;}
	.st12{fill:#232323;stroke:#000000;stroke-width:0.5;stroke-miterlimit:10;}
	.st13{fill:#3D3C3C;}
	.st14{fill:#3D3C3C;stroke:#000000;stroke-width:0.5;stroke-miterlimit:10;}
	.st15{fill:#E8E6E6;}
	.st16{fill:#CCCCCC;}
	.st17{fill:none;stroke:#B3B3B3;stroke-width:0.25;stroke-miterlimit:10;}
	.st18{fill:#E8E6E6;stroke:#B3B3B3;stroke-width:0.25;stroke-miterlimit:10;}
	.st19{fill:#808080;stroke:#808080;stroke-miterlimit:10;}
	.st20{fill:none;stroke:#808080;stroke-width:0.15;stroke-miterlimit:10;}
	.st21{fill:#CCCCCC;stroke:#808080;stroke-width:0.15;stroke-miterlimit:10;}
	.st22{fill:#808080;stroke:#666666;stroke-width:0.25;stroke-miterlimit:10;}
	.st23{fill:#AFAEAE;}
	.st24{fill:none;stroke:#CCCCCC;stroke-width:0.25;stroke-miterlimit:10;}
	.st25{fill:none;stroke:#706D6D;stroke-width:0.3;stroke-miterlimit:10;}
	.st26{fill:none;stroke:#808080;stroke-width:0.25;stroke-miterlimit:10;}
	.st27{fill:none;stroke:#666666;stroke-width:0.25;stroke-miterlimit:10;}
	.st28{fill:#666666;stroke:#666666;stroke-width:0.15;stroke-miterlimit:10;}
	.st29{fill:#7C7B7B;}
	.st30{fill:#2D2D2D;}
</style>
<title>creation_side_breathe2 LAST</title>
<g>
	<path class="st0" d="M245,89c-4-9-13-21-28-21s-27,19-27,19s-5,31,28,36s31-14,31-26C248.1,94.1,246.7,91.5,245,89z M218,119
		c-27-4-23-31-23-31s4-16,22-16s24,19,24,19S245,123,218,119z"/>
	<g>

			<linearGradient id="SVGID_1_" gradientUnits="userSpaceOnUse" x1="497.232" y1="-561.8454" x2="895.985" y2="-561.8454" gradientTransform="matrix(1 5.000000e-02 -5.000000e-02 1 -527.4 615.88)">
			<stop  offset="0" style="stop-color:#E6E6E6"/>
			<stop  offset="2.000000e-02" style="stop-color:#CCCCCC"/>
			<stop  offset="0.99" style="stop-color:#5C5C5C"/>
		</linearGradient>
		<polygon class="st1" points="2,74 399,97 398,104 0,82 		"/>

			<linearGradient id="SVGID_2_" gradientUnits="userSpaceOnUse" x1="498.282" y1="-579.9501" x2="908.2319" y2="-579.9501" gradientTransform="matrix(1 5.000000e-02 -5.000000e-02 1 -527.4 615.88)">
			<stop  offset="0" style="stop-color:#E6E6E6"/>
			<stop  offset="0.99" style="stop-color:#5C5C5C"/>
		</linearGradient>
		<polygon class="st2" points="27,44 412,70 399,99 2,74 		"/>

			<linearGradient id="SVGID_3_" gradientUnits="userSpaceOnUse" x1="896.0819" y1="-574.0648" x2="908.2919" y2="-574.0648" gradientTransform="matrix(1 5.000000e-02 -5.000000e-02 1 -527.4 615.88)">
			<stop  offset="0" style="stop-color:#858585"/>
			<stop  offset="0.27" style="stop-color:#5C5C5C"/>
			<stop  offset="0.79" style="stop-color:#000000"/>
		</linearGradient>
		<polygon class="st3" points="398,104 412,79 412,70 399,99 		"/>
	</g>
	<path class="st4" d="M196,133c1.3,1.1,2.4,2.4,3,4c1,2,1,6-3,9V133z"/>
	<path class="st5" d="M221,199l-67-20c0,0-2-4,1-4s4-3,4-3s0-3-4-4s-12,0-12,1s-3,5,2,6s5,3,5,3v10h4c1-1,0-5,0-5l61,20L221,199z"/>
	<polygon class="st6" points="187,211 176,229 277,228 262,209 	"/>

		<linearGradient id="SVGID_4_" gradientUnits="userSpaceOnUse" x1="685" y1="-476.5" x2="760" y2="-476.5" gradientTransform="matrix(1 0 0 1 -498 635)">
		<stop  offset="0" style="stop-color:#636363"/>
		<stop  offset="0.18" style="stop-color:#5F5F5F"/>
		<stop  offset="0.39" style="stop-color:#505050"/>
		<stop  offset="0.61" style="stop-color:#393939"/>
		<stop  offset="0.85" style="stop-color:#181818"/>
		<stop  offset="0.99" style="stop-color:#000000"/>
	</linearGradient>
	<path class="st7" d="M214,97c0,0,3,32-3,40s-11,13-12,22s-1,30-1,30s-6,6-5,12l-2,5v5l26,11h29l20-12l-7-8c-0.3-4.9-2.5-9.6-6-13
		c0,0-1-30-2-33s-2-11-13-18c-1.3-0.9-2-2.4-2-4l-2-39h-21L214,97z"/>
	<path class="st8" d="M214,137h-1c-2.2,0-4-1.8-4-4l0,0c0-2.2,1.8-4,4-4h1c2.2,0,4,1.8,4,4l0,0C218,135.2,216.2,137,214,137z"/>
	<path class="st4" d="M198,137l15-5c1,0.4,1.6,1.5,1.2,2.5c-0.1,0.2-0.1,0.3-0.2,0.5c-1,2-17,5-17,5L198,137z"/>
	<g>
		<path class="st5" d="M171,124l19,14v2l-19,14l3,4l17-15h2l7,16l2-4l-8-15c-0.4-0.6-0.4-1.4,0-2l6-10l-3-5l-5,14l-19-19L171,124z"
			/>
	</g>
	<path class="st5" d="M237,139c0,1-7,5-15,5s-15-4-15-5s7,3,16,3S237,138,237,139z"/>
	<path class="st9" d="M91,87c0,0,169,17,176,7"/>
	<g>
		<g>
			<path class="st0" d="M205,134c-3-9-10-20-21-20s-20,18-20,18s-4,30,21,35s23-14,22-25S207,138,205,134z M185,163
				c-20-4-17-30-17-30s3-16,16-16s18,18,18,18S205,167,185,163z"/>
		</g>
	</g>
	<path class="st0" d="M195,137h-6c-1.7,1.5-1.8,4-0.4,5.6c0.8,1,2.1,1.5,3.4,1.4h3c0.7-0.8,1.1-1.9,1-3C196.4,139.6,196,138,195,137
		z M193,142h-3c-0.1-0.8,0.3-1.6,1-2l0,0L193,142L193,142L193,142z"/>
	<path d="M192,135c-2,0-4,3-4,6c0.5,2.4,2.6,4,5,4c2.7-0.5,4.5-3.1,4-5.8c0-0.1,0-0.1,0-0.2C196.5,136.6,194.4,135,192,135z
		 M194,144c-2.1,0.6-4.3-0.7-4.9-2.9c-0.1-0.4-0.1-0.7-0.1-1.1c-0.6-2.1,0.6-4.3,2.8-4.9c0.1,0,0.2,0,0.2-0.1c2.5-0.3,4.7,1.5,5,4
		s-1.5,4.7-4,5H194z"/>
	<path class="st5" d="M250,188c0,1-12,4-27,4s-27-3-27-4s12,2,27,2S250,187,250,188z"/>
	<path class="st5" d="M234,137c0,1-4,2-11,2s-12-1-12-2h24H234z"/>
	<path class="st5" d="M255,201c0,1-14,9-31,9s-31-8-31-9s14,6,32,6S255,200,255,201z"/>
	<path class="st10" d="M262,208c0,3-16,16-37,17s-38-11-38-14s17,9,38,9S262,206,262,208z"/>
</g>
<g>
	<g>
		<path class="st11" d="M352,51c0,0,4-6,14-9c5.9-1.7,10.9-5.7,14-11c0,0,1-8,2-9l3-6c1-1,9-6,14,0s0,55-3,56l-5,2l-36-3L352,51z"/>
		<path class="st12" d="M353,59c0,0,4-6,14-9c5.9-1.7,10.9-5.7,14-11c0,0,1-8,2-9l3-6c1-1,9-6,14,0s0,55-3,56l-5,2l-36-3L353,59z"/>
	</g>
	<path class="st13" d="M236,35c0,0,1-10,9-12s51,4,51,4l44,8l33,2c0,0-6,19-2,27l4,8c0,0,0-3-4,0s-3-3-7-1s-119-1-121-6
		s-13-19-13-19L236,35z"/>
	<path class="st14" d="M240,44c0,0,1-10,9-12s51,4,51,4l44,8l33,2c0,0-6,19-2,27l4,8c0,0,0-3-4,0s-3-3-7-1s-119-1-121-6
		s-13-19-13-19L240,44z"/>
</g>
<g>
	<path class="st15" d="M62,46L62,46c-3,1-32,7-31-6c1-7.7,3.4-15.2,7-22l0,0c0-1,2-6,7-9c1.6-1.6,3.8-2.3,6-2h12l4-2c1,0,1,1,1,1
		s0,1,0,2h3c1-1,1,1,1,1h1c0-1,1,0,1-1l0,0c-1-1,0-1,1-1s6-1,7,0v2l0,0l4,3c0.2,0.3,0.2,0.7,0,1l-7,19l0,0l2,12L62,46z"/>
	<path class="st16" d="M66,35l-4,3v2c0.4,1.6,2.1,2.5,3.7,2.1c0.1,0,0.2-0.1,0.3-0.1c3-1,6-2,6-4s-3-1-3-1"/>
	<line class="st17" x1="49" y1="11" x2="51" y2="7"/>
	<path class="st18" d="M53,12c0-2,2-6,2-6"/>
	<line class="st17" x1="53" y1="10" x2="54" y2="7"/>
	<path class="st18" d="M85,19c0,0,0,3-5,5"/>
	<path class="st19" d="M70,28l7-2h-7V28z"/>
	<path class="st20" d="M72,15c0,0,2,3,4,2"/>
	<path class="st20" d="M81,18c1-0.3,1.7-1,2-2"/>
	<g>
		<path class="st21" d="M67,36c0,0-3,1-3,2s1,2,3,2s6-3,6-3"/>
		<path class="st22" d="M66,38L66,38"/>
	</g>
</g>
<path class="st23" d="M91,17c0,0,12-12,19-13s13-3,27-3l59,6c8,1,27,16,27,16s-27,49-39,50s-72,0-76-4s-24-3-19-22c0,0-10,0-8-2
	S93,22,91,17z"/>
<path class="st23" d="M72,51c0,0,12-33,17-34h6l11-2l37-3h43c0,0,38,2,47,6s9,3,14,4h8c4,1-1,55-1,55l-74,4c0,0-56,1-68-1l-31-5
	c0,0-11-10-6-18s-9,0-7-3l3-4"/>
<g>
	<path class="st15" d="M185,65v-2v-1l0,0c3.6-1.2,7.4-1.2,11,0l14-2h4l12,6c2,1,2,4,2,4h-2c0,0,2,3,0,4h-1c0,0,1,3-1,3h-1v1
		c0,0,1,3-2,2l-9-5c0,0-8,2-11,1l-4-2l-2-2h-8L185,65z"/>
	<line class="st24" x1="223" y1="78" x2="215" y2="73"/>
	<line class="st24" x1="215" y1="69" x2="225" y2="74"/>
	<line class="st24" x1="214" y1="65" x2="226" y2="70"/>
</g>
<path class="st25" d="M105,48l12,3c2.5,1.2,5.3,1.5,8,1l4,2h7v1h3l2,2h5l3,2c0,0,0,2,9,1h25c0,0,0,13,3,14h3l-13,4"/>
<g>
	<g>
		<path class="st26" d="M51,23c0,0,4,4,8,4h3"/>
		<path class="st26" d="M52,22c0,0,5,4,8,3h3"/>
		<path class="st27" d="M52,25c1.1-0.6,1.8-1.7,2-3"/>
		<path class="st27" d="M53,26c1.1-0.6,1.8-1.7,2-3"/>
		<path class="st27" d="M56,28c1.1-0.6,1.8-1.7,2-3"/>
		<path class="st27" d="M57,28c1.1-0.6,1.8-1.7,2-3"/>
	</g>
	<g>
		<path class="st28" d="M64,10c0.5,0.6,0.9,1.3,1,2c-0.2,1-0.5,2.1-1,3h-3l2-2v-2"/>
		<path class="st29" d="M63,10h-2c-0.6,0.5-0.9,1.2-1,2c-0.1,1.1,0.3,2.2,1,3c1-0.3,1.7-1,2-2C63.2,12,63.2,11,63,10h-1H63z"/>
	</g>
	<path class="st30" d="M46,47c0,0,0-12,2-13s2-2,2-2h15l-2,4c0,0-7,5-3,7c2.5,1.3,5.2,2,8,2v4C68,49,48,52,46,47z"/>
</g>
</svg>
