<?xml version="1.0" encoding="utf-8"?>
<!-- Generator: Adobe Illustrator 21.1.0, SVG Export Plug-In . SVG Version: 6.00 Build 0)  -->
<svg version="1.1" id="Layer_1" xmlns="http://www.w3.org/2000/svg" xmlns:xlink="http://www.w3.org/1999/xlink" x="0px" y="0px"
	 viewBox="0 0 306 930" style="enable-background:new 0 0 306 930;" xml:space="preserve">
<style type="text/css">
	.st0{display:none;}
	.st1{display:inline;fill:none;}
	.st2{display:inline;fill:#333333;}
	.st3{fill:#070707;stroke:#000000;stroke-width:0.5;stroke-miterlimit:10;}
	.st4{fill:#444243;stroke:#000000;stroke-width:0.5;stroke-miterlimit:10;}
	.st5{fill:#BCBBBB;stroke:#000000;stroke-miterlimit:10;}
	.st6{fill:none;stroke:#000000;stroke-miterlimit:10;}
	.st7{fill:none;stroke:#000000;stroke-width:0.25;stroke-miterlimit:10;}
	.st8{fill:#9E9E9E;stroke:#000000;stroke-miterlimit:10;}
	.st9{fill:#605F60;}
	.st10{fill:none;stroke:#000000;stroke-width:0.5;stroke-miterlimit:10;}
	.st11{fill:#9E9E9E;stroke:#000000;stroke-width:0.75;stroke-miterlimit:10;}
	.st12{fill:#9E9E9E;stroke:#000000;stroke-width:0.5;stroke-miterlimit:10;}
	.st13{fill:#9E9E9E;stroke:#000000;stroke-width:0.25;stroke-miterlimit:10;}
	.st14{fill:#333333;stroke:#000000;stroke-miterlimit:10;}
	.st15{fill:#DDDDDD;stroke:#000000;stroke-miterlimit:10;}
	.st16{fill:#808080;}
	.st17{fill:#1A1A1A;}
	.st18{fill:#666666;}
	.st19{fill:#333333;}
	.st20{fill:#F2F2F2;stroke:#231F20;stroke-width:0.5;stroke-linecap:round;stroke-miterlimit:10;}
	.st21{fill:#1A1A1A;stroke:#000000;stroke-width:0.25;stroke-linecap:round;stroke-miterlimit:10;}
	.st22{fill:#F2F2F2;}
	.st23{fill:none;stroke:#231F20;stroke-width:0.5;stroke-linecap:round;stroke-miterlimit:10;}
</style>
<g id="Layer_1_1_">
</g>
<g id="Layer_2" class="st0">
	<ellipse class="st1" cx="130" cy="142" rx="14" ry="15"/>
	<ellipse class="st1" cx="120" cy="129.5" rx="13" ry="14.5"/>
	<path class="st2" d="M101.6,105.9c0.3-3.7,11.7-11.8,20.2-11s19.7,13.4,19.4,17.1s-9.9-6.1-18.4-6.9
		C114.3,104.3,101.3,109.6,101.6,105.9z"/>
	<path class="st2" d="M196.4,106.9c-0.3-3.5-11.2-11.3-19.4-10.5s-18.8,12.8-18.5,16.3s9.4-5.9,17.6-6.6
		C184.3,105.3,196.8,110.4,196.4,106.9z"/>
</g>
<g id="shoes">
	<path class="st3" d="M111.6,858.4c0,0-26.9,12.9-29,21.5s3.2,8.6,3.2,8.6h21.5c0,0,30.1-8.6,29-12.9l1.1-22.6L111.6,858.4z"/>
	<path class="st3" d="M191.9,860.4c0,0,26.9,12.9,29,21.5c2.2,8.6-3.2,8.6-3.2,8.6h-21.5c0,0-30.1-8.6-29-12.9l-1.1-22.6
		L191.9,860.4z"/>
</g>
<g id="Legs">
	<path class="st4" d="M99.5,670.5l4,190c0,0,22,12,38,3l2-192L99.5,670.5z"/>
	<path class="st4" d="M156.5,671.5l4,190c0,0,22,12,38,3l2-192L156.5,671.5z"/>
</g>
<g id="Upper_body">
	<path class="st5" d="M218.4,587.1c0.6,8.2,1.7,24.6,1.7,28.4c0,5,6,0,6,0s4.4-11,6.9-11.7c0.4-0.1,0.8,0.1,1.1,0.7c2,4,11,0,15-1
		s3-3,7-12c3.1-6.9-0.9-26.8-3-35.7c-0.6-2.7-1-4.3-1-4.3l3-2v-19c0,0-21,10-32,1l-1,15c0,0,3,3,3,5c0,1.4-4.1,8.4-6.4,12.3
		L218.4,587.1z"/>
	<path class="st6" d="M252.1,551.5"/>
	<line class="st6" x1="252.1" y1="551.5" x2="225.1" y2="551.5"/>
	<path class="st5" d="M72.9,565.8c-2.3-3.9-6.4-10.9-6.4-12.3c0-2,3-5,3-5l-1-15c-11,9-32-1-32-1v19l3,2c0,0-0.4,1.7-1,4.3
		c-2,8.9-6,28.7-3,35.7c4,9,3,11,7,12s13,5,15,1c0.3-0.6,0.7-0.8,1.1-0.7c2.5,0.6,6.9,11.7,6.9,11.7s6,5,6,0
		c0-3.7,1.1-20.2,1.7-28.4L72.9,565.8z"/>
	<path class="st5" d="M218.5,533.5c0-0.3,1.8-0.6,2.1-0.6c1.2-0.2,2.4,0,3.3,0.9c0.8,0.7,4.7,0.7,4.7,1.8c6.3-0.5,9.1,1.6,15.4,1.6
		c4.9-0.2,9.8-1.4,14.7-0.8c0.9,0.1,1.6,0.5,2.5,0c0.6-0.3,1.2-0.7,1.7-1.1c1.3-0.9,2.4-1.9,3.3-3.2c1.4-1.9,1.9-4.2,1.4-6.6
		c-2-8-5.2-246.6-62-239c0,0,5.7-13.3-18.2-21.2c-23.8-7.8-72.8,0.2-72.8,0.2s-24,8-19,22c0,0-6-5-19,9s-24,41-24,41s-3-1-12,37
		s-12,150-12,150s0.3,5.1,8,8c0,0,21,10,32,1l4-1l0.4,33.3c0.9,1.6,1.6,2.7,1.6,2.7l-1,16c0,0-0.1,1.8-0.3,4.6l1.3,111.4
		c0,0,55,31,141,0l2-111.6c-0.3-3.6-0.6-7.9,0.2-11.6C217.7,577.3,218.5,533.5,218.5,533.5z"/>
	<path class="st5" d="M74.5,568.5l-1,16c0,0-0.1,1.8-0.3,4.6l-0.3-23.3C73.8,567.4,74.5,568.5,74.5,568.5z"/>
	<g id="Upper_details">
		<polyline class="st6" points="71.5,365.5 72.5,526.5 68.5,533.5 		"/>
	</g>
	<path class="st6" d="M45.5,600.5l1.7,6.2L45.5,600.5z"/>
	<path class="st6" d="M57.5,600.5l1.2,5.8L57.5,600.5z"/>
	<path class="st6" d="M220.7,532.7l-1.2-166.2L220.7,532.7z"/>
	<path class="st7" d="M73.5,354.5"/>
	<g id="Layer_16">
	</g>
	<g id="Layer_17">
	</g>
	<path class="st6" d="M39.5,553.5"/>
	<line class="st6" x1="39.5" y1="553.5" x2="66.5" y2="553.5"/>
	<path class="st6" d="M246.1,598.5l-1.7,6.2L246.1,598.5z"/>
	<path class="st6" d="M234.1,598.5l-1.2,5.8L234.1,598.5z"/>
</g>
<g id="Necklace_1_">
	<g id="Necklace">
		<path class="st8" d="M121.7,302.2l9.2,0.4L121.7,302.2l9.2,0.4c0,0-2.9,12.8,5.8,14.5c8.7,1.7,16.4,0.9,19.3-3.4
			c2.9-4.3,3.9-11.1,3.9-11.1l7.7,2.6c0,0-1.9,18.8-8.7,18.8c0,0-26,8.6-33.7-4.3C125.1,319.7,116.4,316.3,121.7,302.2
			c5.3-14.1,9.2,0.4,9.2,0.4L121.7,302.2"/>
		<g>
			<g>
				<path class="st9" d="M109.5,261.5c0,0-9,1-7.5,8s13.5,15,13.5,15s9,21,4,25s-14,49-14,49v59c0,0,13,36,25,53c0,0-19,12-12,26
					c0,0,4,15,17,16s23-3,26-10c0,0,7-6,0-21s-12-12-12-12l25-50c0,0,2-54,1-69s-8-42-8-42s-3-12,10-23s16-12,16-12s6-4,2-8
					s-12-6-12-6l1,11c0,0-26,21-26,27s18,109,4,124l-20,47h-7c0,0-19-36-18-43c0,0-7-25-5-45s17-75,17-75s-2-16-6-23l-12-12
					L109.5,261.5z"/>
				<path class="st10" d="M109.5,261.5c0,0-9,1-7.5,8s13.5,15,13.5,15s9,21,4,25s-14,49-14,49v59c0,0,13,36,25,53c0,0-19,12-12,26
					c0,0,4,15,17,16s23-3,26-10c0,0,7-6,0-21s-12-12-12-12l25-50c0,0,2-54,1-69s-8-42-8-42s-3-12,10-23s16-12,16-12s6-4,2-8
					s-12-6-12-6l1,11c0,0-26,21-26,27s18,109,4,124l-20,47h-7c0,0-19-36-18-43c0,0-7-25-5-45s17-75,17-75s-2-16-6-23l-12-12
					L109.5,261.5z"/>
			</g>
		</g>
		<path class="st11" d="M125.6,483.8c0,0,6.2-15.4,19.5-9.3c13.4,6.2,13.4,15.4,13.4,15.4s-1.5,15.2-14.1,15.8s-17.7-6.6-17.7-6.6
			S121.5,491,125.6,483.8z"/>
		<path class="st12" d="M131.9,488c0,0,3.6-8.9,11.3-5.4c7.7,3.6,7.7,8.9,7.7,8.9s-0.9,8.8-8.2,9.2c-7.3,0.4-10.3-3.8-10.3-3.8
			S129.5,492.2,131.9,488z"/>
		<path class="st13" d="M134.7,488.8c0,0,2.8-7,8.8-4.2c6.1,2.8,6.1,7,6.1,7s-0.7,6.9-6.4,7.2c-5.7,0.3-8-3-8-3
			S132.9,492.1,134.7,488.8z"/>
	</g>
</g>
<g id="Hair">
	<g id="third">
		<ellipse class="st14" cx="133.8" cy="140.4" rx="80.2" ry="96.9"/>
	</g>
	<g id="Head">
		<path class="st15" d="M95.5,100.5c0,0,3,91-2,93s15,29,16,35s5,38,2,41s13,13,13,13l48,1c0,0,9-12,14-13c0,0,2-35,4-40
			s10.2-18.5,13-22s1.7-7,1.8-15.5c0.2-8.5,0.2-98.5,0.2-98.5s7-28-18-37s-77-2-77-2L95.5,100.5z"/>
	</g>
	<path id="light1" class="st16" d="M105.7,223c0,0-3-7-4-7s-8.9-1-8.9-1s-5.9-4-4-6c2-2-8.9-2-8.9-2s-17.8-7-9.9-10s-4.9-7-4.9-7
		s-7.9-6-1-10s-4.9,0-4.9,0s-32.7-7-19.8-17c0,0-22.8-18-8.9-28s-3.2-12,23.5-23c0,0-3.7-16,4.2-17c7.9-1,9.8-14,9.8-14
		s-6.8-16,5-16c0,0,3-24,22.8-29c0,0,11.9-4,13.9,0s18.8-27,31.7-12s18.8,6,21.8,0s12.9-3,9.9,10s19.8,6,19.8,6s23.8,2,6.9,21
		c0,0,23.8,0,16.8,20s25.7,0,26.7,12s33.7,16,9.9,30s2,6,2,6s33.7,13,2,33c0,0,0,24-11.9,16c0,0-5.9,1-6.9,11s-8.9,7-8.9,7
		s-14.8,6-8.9,10s-4,9-5.9,8s-8.9,5-8.9,5l-10.9,5c0,0,5.3-11.5,5.9-12.9s1.1-2.8,1.6-4.2c1.4-4,2.4-8,2.4-10.9c0-9,13.9-36,13.9-36
		s-4.5-22-1.5-31c2-6-22.2-25.2-26.2-31c-4.8-7-5.4-18.6,0-26c2.2-3-15.8-2-15.8-2s-22.8-8-25.7-14c0,0-8.3,17-15.3,16
		s-14.4,4-19.4-3c-4.9-7-14.8-6-14.8-6s-4.9,18-15.8,21s-4.9,19-4.9,19s11.9,8,8.9,14s-16.9,14-16.9,14s-22.9,23-15,29s19,7,19,7
		s-4.9,16-1,15c4-1,5.9,6,5.9,6s-2,19,8.9,15L105.7,223z"/>
	<g id="dark2">
		<path class="st17" d="M143.6,56.5c0,0-1.1,13.7-20.2,11.6s-17,19-17,19s-3.2,19-8.5,16.9s-2.1,32.7-2.1,32.7L93.7,202
			c0,0-0.4,19,6.7,24.2c7.1,5.3-21.6-16.9-21.6-16.9s-12.7-23.2-1.1-22.1s-17.3-22.5-17.3-22.5S48,153.3,63.9,147
			c0.1-0.1-12.5,5.3-12.3,5.3c15.8-6.4,29.3-19.9,29.3-19.9s12.7-19,2.1-22.1c-10.6-3.2-7.4-20-2.1-20s20.2-13.7,17-16.9
			c-3.2-3.2-2.1-15.8,8.5-10.5s32.9-12.6,32.9-12.6s8.5-7.4,9.5-1.1S143.6,56.5,143.6,56.5z"/>
	</g>
	<path id="dark1" class="st17" d="M199,213c0,0,16-4,13-17s0.7-23.3,0.7-23.3s7.4-9.9,11.3-22.7c4.8-15.8-6-14-7-22
		c-1.3-10.2-4-11-10-17s-19-18-19-18s20,31,19,45S199,213,199,213z"/>
</g>
<g id="Face">
	<g id="Nose">
		<path class="st6" d="M136.5,166c0,0,5,0.3,7,3.9s8-1,8-1s3-4.5,5-3s8-9.8-1-12.8l-1-21.7"/>
	</g>
	<g id="mouth">
		<path class="st18" d="M167,186c0,5-11.9,12-20.5,12s-21.5-8-21.5-13s13.4-1,22-1S167,181,167,186z"/>
	</g>
	<g id="eyebrows">
		<path class="st19" d="M100,109c0.7-4.9,14.1-12.7,22.6-11.5s17.1,8.6,16.4,13.5s-9.5-3.8-18-5S99.3,113.9,100,109z"/>
		<path class="st19" d="M193,109c-0.7-4.9-14.1-12.7-22.6-11.5s-17.1,8.6-16.4,13.5s9.5-3.8,18-5S193.7,113.9,193,109z"/>
	</g>
	<g id="moustache">
		<path class="st19" d="M144,172.7c0,0,1,9.2,0,11.3c-1,2-12,6.9-21,2.6s-1-6.1-1-6.1l14-0.9l2-7.8C138,171.9,144,169.3,144,172.7z"
			/>
		<path class="st19" d="M149.2,172.7c0,0-1,9.2,0,11.3c1,2,12,6.9,21,2.6s1-6.1,1-6.1l-14-0.9l-2-7.8
			C155.2,171.9,149.2,169.3,149.2,172.7z"/>
	</g>
	<g id="eye">
		<g>
			<g>
				<path class="st20" d="M106.5,130.5c0,0,1.2-14.3,10.5-15.2c9.2-0.8,12.8,7.3,12.8,7.3s5.8,10.5-1.2,17.7s-13.4,4-13.4,4
					S107.4,141.5,106.5,130.5z"/>
			</g>
		</g>
	</g>
	<g id="eyes">
		<path class="st21" d="M119.2,125.5c2.7,0,3.5,2,3.7,3.6c0.5,2.2-0.5,3.2-0.5,3.2c-1.5,0.7-1.5,0.7-3.2,0.5
			c-3.7-0.5-3.7-2.7-3.7-3.6C115.5,128.2,116.4,125.5,119.2,125.5z"/>
	</g>
	<g id="second_eye">
		<g>
			<g>
				<path class="st22" d="M162,130.5c0,0,1.3-14.6,10.7-15.5c9.4-0.8,13.1,7.5,13.1,7.5s5.9,10.7-1.3,18c-7.2,7.3-13.7,4.1-13.7,4.1
					S163,141.7,162,130.5z"/>
				<path class="st23" d="M162,130.5c0,0,1.3-14.6,10.7-15.5c9.4-0.8,13.1,7.5,13.1,7.5s5.9,10.7-1.3,18c-7.2,7.3-13.7,4.1-13.7,4.1
					S163,141.7,162,130.5z"/>
			</g>
		</g>
		<path class="st21" d="M175.9,125.4c2.8,0,3.6,2.1,3.8,3.7c0.5,2.2-0.5,3.2-0.5,3.3c-1.5,0.7-1.5,0.7-3.3,0.5
			c-3.8-0.5-3.8-2.8-3.8-3.7C172.2,128.2,173.1,125.4,175.9,125.4z"/>
	</g>
</g>
</svg>
