<?xml version="1.0" encoding="utf-8"?>
<!-- Generator: Adobe Illustrator 21.1.0, SVG Export Plug-In . SVG Version: 6.00 Build 0)  -->
<svg version="1.1" id="Layer_1" xmlns="http://www.w3.org/2000/svg" xmlns:xlink="http://www.w3.org/1999/xlink" x="0px" y="0px"
	 viewBox="0 0 179 492" style="enable-background:new 0 0 179 492;" xml:space="preserve">
<style type="text/css">
	.st0{fill:#545454;}
	.st1{fill:#444243;stroke:#000000;stroke-width:0.5;stroke-miterlimit:10;}
	.st2{fill:#BCBBBB;stroke:#000000;stroke-miterlimit:10;}
	.st3{fill:none;stroke:#000000;stroke-miterlimit:10;}
	.st4{fill:none;stroke:#000000;stroke-width:0.25;stroke-miterlimit:10;}
	.st5{fill:#333333;}
	.st6{fill:none;stroke:#5B5B5B;stroke-miterlimit:10;}
	.st7{fill:#262626;stroke:#6B6B6B;stroke-width:0.5;stroke-miterlimit:10;}
	.st8{fill:#7F7E7E;}
	.st9{fill:#C9C9C9;}
	.st10{fill:#606060;}
	.st11{fill:#9E9E9E;stroke:#000000;stroke-miterlimit:10;}
	.st12{fill:#605F60;}
	.st13{fill:none;stroke:#000000;stroke-width:0.5;stroke-miterlimit:10;}
	.st14{fill:#9E9E9E;stroke:#000000;stroke-width:0.75;stroke-miterlimit:10;}
	.st15{fill:#9E9E9E;stroke:#000000;stroke-width:0.5;stroke-miterlimit:10;}
	.st16{fill:#9E9E9E;stroke:#000000;stroke-width:0.25;stroke-miterlimit:10;}
	.st17{fill:#333333;stroke:#000000;stroke-miterlimit:10;}
	.st18{fill:#DDDDDD;stroke:#000000;stroke-miterlimit:10;}
	.st19{fill:#808080;}
	.st20{fill:#1A1A1A;}
	.st21{fill:#F2F2F2;stroke:#231F20;stroke-width:0.5;stroke-linecap:round;stroke-miterlimit:10;}
	.st22{fill:#1A1A1A;stroke:#000000;stroke-width:0.25;stroke-linecap:round;stroke-miterlimit:10;}
	.st23{fill:#F2F2F2;}
	.st24{fill:none;stroke:#231F20;stroke-width:0.5;stroke-linecap:round;stroke-miterlimit:10;}
</style>
<g>
	<g id="shoes_2_">
		<path class="st0" d="M70.7,470.2c0,0-15,7.2-16.1,12c-1.2,4.8,1.8,4.8,1.8,4.8h12c0,0,16.7-4.8,16.1-7.2l0.6-12.6L70.7,470.2z"/>
		<path class="st0" d="M115.4,471.3c0,0,15,7.2,16.1,12c1.2,4.8-1.8,4.8-1.8,4.8h-12c0,0-16.7-4.8-16.1-7.2l-0.6-12.6L115.4,471.3z"
			/>
	</g>
	<g id="Legs_2_">
		<path class="st1" d="M64,365.7l2.2,105.6c0,0,12.2,6.7,21.1,1.7l1.1-106.7L64,365.7z"/>
		<path class="st1" d="M95.7,366.3l2.2,105.6c0,0,12.2,6.7,21.1,1.7l1.1-106.7L95.7,366.3z"/>
	</g>
	<g id="Upper_body_2_">
		<path class="st2" d="M130.1,319.3c0.3,4.6,0.9,13.7,0.9,15.8c0,2.8,3.3,0,3.3,0s2.4-6.1,3.8-6.5c0.2-0.1,0.4,0.1,0.6,0.4
			c1.1,2.2,6.1,0,8.3-0.6c2.2-0.6,1.7-1.7,3.9-6.7c1.7-3.8-0.5-14.9-1.7-19.8c-0.3-1.5-0.6-2.4-0.6-2.4l1.7-1.1v-10.6
			c0,0-11.7,5.6-17.8,0.6l-0.6,8.3c0,0,1.7,1.7,1.7,2.8c0,0.8-2.3,4.7-3.6,6.8L130.1,319.3z"/>
		<path class="st3" d="M148.8,299.5"/>
		<line class="st3" x1="148.8" y1="299.5" x2="133.8" y2="299.5"/>
		<path class="st2" d="M49.2,307.5c-1.3-2.2-3.6-6.1-3.6-6.8c0-1.1,1.7-2.8,1.7-2.8l-0.6-8.3c-6.1,5-17.8-0.6-17.8-0.6v10.6l1.7,1.1
			c0,0-0.2,0.9-0.6,2.4c-1.1,4.9-3.3,16-1.7,19.8c2.2,5,1.7,6.1,3.9,6.7c2.2,0.6,7.2,2.8,8.3,0.6c0.2-0.3,0.4-0.4,0.6-0.4
			c1.4,0.3,3.8,6.5,3.8,6.5s3.3,2.8,3.3,0c0-2.1,0.6-11.2,0.9-15.8L49.2,307.5z"/>
		<path class="st2" d="M130.2,289.5c0-0.2,1-0.3,1.2-0.3c0.7-0.1,1.3,0,1.8,0.5c0.4,0.4,2.6,0.4,2.6,1c3.5-0.3,5.1,0.9,8.6,0.9
			c2.7-0.1,5.4-0.8,8.2-0.4c0.5,0.1,0.9,0.3,1.4,0c0.3-0.2,0.7-0.4,0.9-0.6c0.7-0.5,1.3-1.1,1.8-1.8c0.8-1.1,1.1-2.3,0.8-3.7
			c-1.1-4.4-2.9-137.1-34.5-132.9c0,0,3.2-7.4-10.1-11.8c-13.2-4.3-40.5,0.1-40.5,0.1S59,145,61.8,152.8c0,0-3.3-2.8-10.6,5
			s-13.3,22.8-13.3,22.8s-1.7-0.6-6.7,20.6s-6.7,83.4-6.7,83.4s0.2,2.8,4.4,4.4c0,0,11.7,5.6,17.8,0.6L49,289l0.2,18.5
			c0.5,0.9,0.9,1.5,0.9,1.5l-0.6,8.9c0,0-0.1,1-0.2,2.6l0.7,61.9c0,0,30.6,17.2,78.4,0l1.1-62c-0.2-2-0.3-4.4,0.1-6.4
			C129.7,313.9,130.2,289.5,130.2,289.5z"/>
		<path class="st2" d="M50.1,309l-0.6,8.9c0,0-0.1,1-0.2,2.6l-0.2-13C49.7,308.4,50.1,309,50.1,309z"/>
		<g id="Upper_details_2_">
			<polyline class="st3" points="46.8,189.5 48.4,196.1 49,285.6 46.8,289.5 			"/>
		</g>
		<path class="st3" d="M34,326.8l0.9,3.4L34,326.8z"/>
		<path class="st3" d="M40.6,326.8l0.7,3.2L40.6,326.8z"/>
		<path class="st3" d="M131.4,289.1l-0.7-92.4L131.4,289.1z"/>
		<path class="st4" d="M49.5,190"/>
		<g id="Layer_16_2_">
		</g>
		<g id="Layer_17_2_">
		</g>
		<path class="st3" d="M30.6,300.7"/>
		<line class="st3" x1="30.6" y1="300.7" x2="45.7" y2="300.7"/>
		<path class="st3" d="M145.5,325.7l-0.9,3.4L145.5,325.7z"/>
		<path class="st3" d="M138.8,325.7l-0.7,3.2L138.8,325.7z"/>
		<ellipse class="st5" cx="90.1" cy="104.2" rx="5.2" ry="2.4"/>
		<path class="st6" d="M123,152.2c0,0-7.7,2.4-10.9,8.4"/>
		<path class="st7" d="M61.8,152.8c0,0,5.1,6.6,7.7,6.6"/>
		<path class="st8" d="M149,290.6c0,0,1.2-6.5,1.1-10.5s2.1,8.6,0.5,10.9"/>
		<path class="st9" d="M151.5,290.2c0,0,2-11.6,2-18.5s2.9,15.4,0.4,19.3"/>
		<path class="st10" d="M48.4,246.1c0,0-11.8-1.9-15.7-2.2s12.2-0.5,14.2,1.3"/>
		<path class="st8" d="M48.7,249.2c0,0-11.6-2-18.5-2s14.5-3.1,18.4-0.6"/>
		<path class="st10" d="M48.1,251.7c0,0-6.6-0.7-10.5-0.3c-3.9,0.4,8.5-2.7,10.8-1.3"/>
		<path class="st10" d="M146.1,290.9c0,0,1-4.6,1-7.3s1.4,6.1,0.2,7.7"/>
		<path class="st8" d="M131.7,249.3c0,0,4.7,1,7.4,0.9c2.7-0.2-6,2.2-7.6,0.7"/>
		<path class="st10" d="M132.7,247.8c0,0,13.2-0.4,19.2-0.5c6-0.2-13.3,2.5-16.7,0.8"/>
		<path class="st10" d="M61.8,149.3c0,0,6.6,6.5,10.9,10.3s-9.6-5-11.1-8.2"/>
		<path class="st10" d="M45.8,289.5c0,0,1-4.6,1-7.3c0-2.8,1.4,6.1,0.2,7.7"/>
		<path class="st10" d="M43.4,290.5c0,0,1-6.7,1-10.7s1.4,8.9,0.2,11.1"/>
		<path class="st10" d="M130.2,198c0,0,1.5-4.5,1.8-7.2s0.7,6.2-0.6,7.6"/>
		<path class="st10" d="M118.2,159.5c0,0,3.2-4.3,5.5-6.9s-8.5,5.8-9,7.9"/>
		<path class="st7" d="M52.1,189c0,0-4.6,7-3.7,9.5"/>
		<path class="st7" d="M130.8,198.7c0,0-1.3-7.5-3.3-8.5"/>
		<path class="st7" d="M130.5,198.6c0,0,6.6-1,7.1-3.2"/>
		<path class="st7" d="M122.7,152.4c0,0-8.6,1.4-9.5,3.5"/>
	</g>
	<g id="Necklace_1_">
		<g id="Necklace_4_">
			<path class="st11" d="M76.3,161l5.1,0.2L76.3,161l5.1,0.2c0,0-1.6,7.1,3.2,8.1c4.8,0.9,9.1,0.5,10.7-1.9c1.6-2.4,2.2-6.2,2.2-6.2
				l4.3,1.4c0,0-1.1,10.5-4.8,10.5c0,0-14.5,4.8-18.7-2.4C78.2,170.7,73.4,168.8,76.3,161c2.9-7.8,5.1,0.2,5.1,0.2L76.3,161"/>
			<g>
				<g>
					<path class="st12" d="M69.6,138.3c0,0-5,0.6-4.2,4.4c0.8,3.9,7.5,8.3,7.5,8.3s5,11.7,2.2,13.9c-2.8,2.2-7.8,27.2-7.8,27.2V225
						c0,0,7.2,20,13.9,29.5c0,0-10.6,6.7-6.7,14.5c0,0,2.2,8.3,9.5,8.9c7.2,0.6,12.8-1.7,14.5-5.6c0,0,3.9-3.3,0-11.7
						s-6.7-6.7-6.7-6.7l13.9-27.8c0,0,1.1-30,0.6-38.4c-0.6-8.3-4.4-23.3-4.4-23.3s-1.7-6.7,5.6-12.8c7.2-6.1,8.9-6.7,8.9-6.7
						s3.3-2.2,1.1-4.4c-2.2-2.2-6.7-3.3-6.7-3.3l0.6,6.1c0,0-14.5,11.7-14.5,15s10,60.6,2.2,68.9l-11.1,26.1H84c0,0-10.6-20-10-23.9
						c0,0-3.9-13.9-2.8-25c1.1-11.1,9.5-41.7,9.5-41.7s-1.1-8.9-3.3-12.8l-6.7-6.7L69.6,138.3z"/>
					<path class="st13" d="M69.6,138.3c0,0-5,0.6-4.2,4.4c0.8,3.9,7.5,8.3,7.5,8.3s5,11.7,2.2,13.9c-2.8,2.2-7.8,27.2-7.8,27.2V225
						c0,0,7.2,20,13.9,29.5c0,0-10.6,6.7-6.7,14.5c0,0,2.2,8.3,9.5,8.9c7.2,0.6,12.8-1.7,14.5-5.6c0,0,3.9-3.3,0-11.7
						s-6.7-6.7-6.7-6.7l13.9-27.8c0,0,1.1-30,0.6-38.4c-0.6-8.3-4.4-23.3-4.4-23.3s-1.7-6.7,5.6-12.8c7.2-6.1,8.9-6.7,8.9-6.7
						s3.3-2.2,1.1-4.4c-2.2-2.2-6.7-3.3-6.7-3.3l0.6,6.1c0,0-14.5,11.7-14.5,15s10,60.6,2.2,68.9l-11.1,26.1H84c0,0-10.6-20-10-23.9
						c0,0-3.9-13.9-2.8-25c1.1-11.1,9.5-41.7,9.5-41.7s-1.1-8.9-3.3-12.8l-6.7-6.7L69.6,138.3z"/>
				</g>
			</g>
			<path class="st14" d="M78.5,261.9c0,0,3.4-8.6,10.8-5.2c7.4,3.4,7.4,8.6,7.4,8.6s-0.8,8.4-7.8,8.8c-7,0.3-9.8-3.7-9.8-3.7
				S76.2,265.9,78.5,261.9z"/>
			<path class="st15" d="M82,264.2c0,0,2-4.9,6.3-3c4.3,2,4.3,4.9,4.3,4.9s-0.5,4.9-4.6,5.1c-4.1,0.2-5.7-2.1-5.7-2.1
				S80.7,266.6,82,264.2z"/>
			<path class="st16" d="M83.6,264.7c0,0,1.6-3.9,4.9-2.3c3.4,1.6,3.4,3.9,3.4,3.9s-0.4,3.8-3.6,4c-3.2,0.2-4.4-1.7-4.4-1.7
				S82.6,266.5,83.6,264.7z"/>
		</g>
	</g>
	<g id="Hair_2_">
		<g id="third_2_">
			<ellipse class="st17" cx="83.1" cy="71" rx="44.6" ry="53.9"/>
		</g>
		<g id="Head_2_">
			<path class="st18" d="M61.8,48.8c0,0,1.7,50.6-1.1,51.7c-2.8,1.1,8.3,16.1,8.9,19.5c0.6,3.3,2.8,21.1,1.1,22.8s7.2,7.2,7.2,7.2
				l26.7,0.6c0,0,5-6.7,7.8-7.2c0,0,1.1-19.5,2.2-22.2s5.7-10.3,7.2-12.2c1.6-1.9,0.9-3.9,1-8.6c0.1-4.7,0.1-54.8,0.1-54.8
				s3.9-15.6-10-20.6s-42.8-1.1-42.8-1.1L61.8,48.8z"/>
		</g>
		<path id="light1_2_" class="st19" d="M67.4,116.9c0,0-1.7-3.9-2.2-3.9s-4.9-0.6-4.9-0.6s-3.3-2.2-2.2-3.3c1.1-1.1-4.9-1.1-4.9-1.1
			s-9.9-3.9-5.5-5.6c4.4-1.7-2.7-3.9-2.7-3.9s-4.4-3.3-0.6-5.6s-2.7,0-2.7,0s-18.2-3.9-11-9.5c0,0-12.7-10-4.9-15.6
			c7.7-5.6-1.8-6.7,13.1-12.8c0,0-2.1-8.9,2.3-9.5c4.4-0.6,5.4-7.8,5.4-7.8s-3.8-8.9,2.8-8.9c0,0,1.7-13.3,12.7-16.1
			c0,0,6.6-2.2,7.7,0c1.1,2.2,10.5-15,17.6-6.7c7.2,8.3,10.5,3.3,12.1,0c1.7-3.3,7.2-1.7,5.5,5.6s11,3.3,11,3.3s13.2,1.1,3.8,11.7
			c0,0,13.2,0,9.3,11.1c-3.9,11.1,14.3,0,14.8,6.7c0.6,6.7,18.7,8.9,5.5,16.7s1.1,3.3,1.1,3.3s18.7,7.2,1.1,18.3c0,0,0,13.3-6.6,8.9
			c0,0-3.3,0.6-3.8,6.1s-4.9,3.9-4.9,3.9s-8.2,3.3-4.9,5.6c3.3,2.2-2.2,5-3.3,4.4c-1.1-0.6-4.9,2.8-4.9,2.8l-6.1,2.8
			c0,0,2.9-6.4,3.3-7.2c0.3-0.8,0.6-1.6,0.9-2.3c0.8-2.2,1.3-4.4,1.3-6.1c0-5,7.7-20,7.7-20s-2.5-12.2-0.8-17.2
			c1.1-3.3-12.3-14-14.6-17.2c-2.7-3.9-3-10.3,0-14.5c1.2-1.7-8.8-1.1-8.8-1.1s-12.7-4.4-14.3-7.8c0,0-4.6,9.5-8.5,8.9
			c-3.9-0.6-8,2.2-10.8-1.7c-2.7-3.9-8.2-3.3-8.2-3.3s-2.7,10-8.8,11.7c-6.1,1.7-2.7,10.6-2.7,10.6s6.6,4.4,4.9,7.8
			c-1.7,3.3-9.4,7.8-9.4,7.8S35.6,78.6,40,81.9c4.4,3.3,10.6,3.9,10.6,3.9s-2.7,8.9-0.6,8.3c2.2-0.6,3.3,3.3,3.3,3.3
			s-1.1,10.6,4.9,8.3L67.4,116.9z"/>
		<g id="dark2_2_">
			<path class="st20" d="M88.5,24.4c0,0-0.6,7.6-11.2,6.4s-9.5,10.6-9.5,10.6s-1.8,10.6-4.7,9.4s-1.2,18.2-1.2,18.2l-1.2,36.3
				c0,0-0.2,10.6,3.7,13.5c3.9,2.9-12-9.4-12-9.4S45.4,96.4,51.9,97c6.4,0.6-9.6-12.5-9.6-12.5s-6.9-6.3,1.9-9.8
				c0.1-0.1-6.9,2.9-6.8,2.9c8.8-3.6,16.3-11.1,16.3-11.1s7.1-10.6,1.2-12.3c-5.9-1.8-4.1-11.1-1.2-11.1s11.2-7.6,9.5-9.4
				c-1.8-1.8-1.2-8.8,4.7-5.8c5.9,2.9,18.3-7,18.3-7s4.7-4.1,5.3-0.6C92,23.8,88.5,24.4,88.5,24.4z"/>
		</g>
		<path id="dark1_2_" class="st20" d="M119.3,111.4c0,0,8.9-2.2,7.2-9.5c-1.7-7.2,0.4-13,0.4-13s4.1-5.5,6.3-12.6
			c2.7-8.8-3.3-7.8-3.9-12.2c-0.7-5.7-2.2-6.1-5.6-9.5c-3.3-3.3-10.6-10-10.6-10s11.1,17.2,10.6,25
			C123.2,77.5,119.3,111.4,119.3,111.4z"/>
	</g>
	<g id="Face_2_">
		<g id="Nose_2_">
			<path class="st3" d="M84.6,85.2c0,0,2.8,0.2,3.9,2.2c1.1,2,4.4-0.6,4.4-0.6s1.7-2.5,2.8-1.7c1.1,0.8,4.4-5.4-0.6-7.1L94.6,66"/>
		</g>
		<g id="mouth_2_">
			<path d="M101.5,97.5c6,6.9-0.7,24.1-11.5,24.5c-9.3,0.3-17.9-17.4-11.8-25.4c2.7-3.6,7.4-0.9,12.2-0.9S98.6,94.2,101.5,97.5z"/>
		</g>
		<g id="eyebrows_2_">
			<path class="st5" d="M64.2,51c0.6-2.7,8.4-6.4,13.1-5.3c4.7,1.1,9.1,5.6,8.5,8.2c-0.6,2.7-5.1-2.5-9.7-3.6
				C71.3,49.2,63.6,53.7,64.2,51z"/>
			<path class="st5" d="M115.7,55.3c-0.2-2.7-7.2-7.7-12-7.4c-4.8,0.3-9.9,4-9.7,6.7s5.4-1.7,10.2-1.9
				C109,52.4,115.9,58.1,115.7,55.3z"/>
		</g>
		<g id="moustache_2_">
			<path class="st5" d="M89,87.3c0,0,0.2,5.1-0.5,6.3c-0.6,1.1-6.9,3.3-11.8,0.6s-0.3-3.4-0.3-3.4l7.8,0.1l1.4-4.2
				C85.7,86.6,89.2,85.4,89,87.3z"/>
			<path class="st5" d="M91.9,87.5c0,0-0.9,5.1-0.5,6.3c0.5,1.2,6.4,4.3,11.5,2.3c5.2-2,0.8-3.3,0.8-3.3l-7.7-1.1l-0.8-4.4
				C95.3,87.3,92.1,85.6,91.9,87.5z"/>
		</g>
		<g id="eye_2_">
			<g>
				<g>
					<path class="st21" d="M66.3,66c0,0,0.7-8.9,6.6-9.5c5.7-0.5,8,4.6,8,4.6s3.6,6.6-0.7,11.1s-8.4,2.5-8.4,2.5S66.8,72.8,66.3,66z
						"/>
				</g>
			</g>
		</g>
		<g id="eyes_2_">
			<path class="st22" d="M74.9,62.7c1.5,0,1.9,1.1,2.1,2c0.3,1.2-0.3,1.8-0.3,1.8c-0.8,0.4-0.8,0.4-1.8,0.3c-2.1-0.3-2.1-1.5-2.1-2
				C72.9,64.2,73.4,62.7,74.9,62.7z"/>
		</g>
		<g id="second_eye_2_">
			<g>
				<g>
					<path class="st23" d="M100.9,68.2c0,0,0.8-9.1,6.7-9.7c5.9-0.5,8.2,4.7,8.2,4.7s3.7,6.7-0.8,11.2c-4.5,4.6-8.6,2.6-8.6,2.6
						S101.6,75.2,100.9,68.2z"/>
					<path class="st24" d="M100.9,68.2c0,0,0.8-9.1,6.7-9.7c5.9-0.5,8.2,4.7,8.2,4.7s3.7,6.7-0.8,11.2c-4.5,4.6-8.6,2.6-8.6,2.6
						S101.6,75.2,100.9,68.2z"/>
				</g>
			</g>
			<path class="st22" d="M109.6,65c1.7,0,2.2,1.3,2.4,2.3c0.3,1.4-0.3,2-0.3,2.1c-0.9,0.4-0.9,0.4-2.1,0.3c-2.4-0.3-2.4-1.7-2.4-2.3
				C107.3,66.7,107.9,65,109.6,65z"/>
		</g>
	</g>
</g>
</svg>
