<svg id="Layer_1" data-name="Layer 1" xmlns="http://www.w3.org/2000/svg" xmlns:xlink="http://www.w3.org/1999/xlink" viewBox="0 0 1052.36 233.1">
  <defs>
    <style>
      .cls-1 {
        stroke: #262626;
        stroke-width: 8px;
        fill: url(#linear-gradient);
      }

      .cls-2 {
        fill: url(#linear-gradient-2);
      }

      .cls-3 {
        fill: url(#linear-gradient-3);
      }

      .cls-4 {
        fill: url(#linear-gradient-4);
      }

      .cls-5 {
        fill: url(#linear-gradient-5);
      }

      .cls-6 {
        fill: url(#linear-gradient-6);
      }

      .cls-7 {
        fill: url(#linear-gradient-7);
      }

      .cls-8 {
        fill: url(#linear-gradient-8);
      }

      .cls-9 {
        fill: url(#linear-gradient-9);
      }

      .cls-10 {
        fill: url(#linear-gradient-10);
      }

      .cls-11 {
        fill: url(#linear-gradient-11);
      }

      .cls-12 {
        fill: url(#linear-gradient-12);
      }

      .cls-13 {
        fill: url(#linear-gradient-13);
      }

      .cls-14 {
        fill: url(#linear-gradient-14);
      }

      .cls-15 {
        fill: url(#linear-gradient-15);
      }

      .cls-16 {
        fill: url(#linear-gradient-16);
      }

      .cls-17 {
        fill: url(#linear-gradient-17);
      }

      .cls-18 {
        fill: url(#linear-gradient-18);
      }

      .cls-19 {
        fill: url(#linear-gradient-19);
      }
    </style>
    <linearGradient id="linear-gradient" x1="-25.44" y1="882.27" x2="-1.63" y2="882.27" gradientTransform="matrix(0.98, 0, 0.05, -1.38, -29.59, 1331.55)" gradientUnits="userSpaceOnUse">
      <stop offset="0" stop-color="#333"/>
      <stop offset="1" stop-color="#505050"/>
    </linearGradient>
    <linearGradient id="linear-gradient-2" x1="18.36" y1="882.28" x2="36.84" y2="882.28" gradientTransform="matrix(0.98, 0, 0.05, -1.38, -29.59, 1331.55)" gradientUnits="userSpaceOnUse">
      <stop offset="0" stop-color="#666"/>
      <stop offset="1" stop-color="#3b3b3b"/>
    </linearGradient>
    <linearGradient id="linear-gradient-3" x1="21.16" y1="880.11" x2="37.44" y2="880.11" gradientTransform="matrix(0.98, 0, 0.05, -1.38, 29.03, 1331.55)" xlink:href="#linear-gradient-2"/>
    <linearGradient id="linear-gradient-4" x1="21.16" y1="880.11" x2="37.44" y2="880.11" gradientTransform="matrix(0.98, 0, 0.05, -1.38, 87.66, 1331.55)" xlink:href="#linear-gradient-2"/>
    <linearGradient id="linear-gradient-5" x1="21.16" y1="880.11" x2="37.44" y2="880.11" gradientTransform="matrix(0.98, 0, 0.05, -1.38, 146.28, 1331.55)" xlink:href="#linear-gradient-2"/>
    <linearGradient id="linear-gradient-6" x1="21.16" y1="880.11" x2="37.44" y2="880.11" gradientTransform="matrix(0.98, 0, 0.05, -1.38, 204.91, 1331.55)" xlink:href="#linear-gradient-2"/>
    <linearGradient id="linear-gradient-7" x1="21.16" y1="880.11" x2="37.44" y2="880.11" gradientTransform="matrix(0.98, 0, 0.05, -1.38, 263.54, 1331.55)" xlink:href="#linear-gradient-2"/>
    <linearGradient id="linear-gradient-8" x1="21.16" y1="880.11" x2="37.44" y2="880.11" gradientTransform="matrix(0.98, 0, 0.05, -1.38, 322.16, 1331.55)" xlink:href="#linear-gradient-2"/>
    <linearGradient id="linear-gradient-9" x1="21.16" y1="880.11" x2="37.44" y2="880.11" gradientTransform="matrix(0.98, 0, 0.05, -1.38, 380.79, 1331.55)" xlink:href="#linear-gradient-2"/>
    <linearGradient id="linear-gradient-10" x1="21.16" y1="880.11" x2="37.44" y2="880.11" gradientTransform="matrix(0.98, 0, 0.05, -1.38, 439.41, 1331.55)" xlink:href="#linear-gradient-2"/>
    <linearGradient id="linear-gradient-11" x1="21.16" y1="880.11" x2="37.44" y2="880.11" gradientTransform="matrix(0.98, 0, 0.05, -1.38, 498.04, 1331.55)" xlink:href="#linear-gradient-2"/>
    <linearGradient id="linear-gradient-12" x1="21.16" y1="880.11" x2="37.44" y2="880.11" gradientTransform="matrix(0.98, 0, 0.05, -1.38, 556.66, 1331.55)" xlink:href="#linear-gradient-2"/>
    <linearGradient id="linear-gradient-13" x1="21.16" y1="880.11" x2="37.44" y2="880.11" gradientTransform="matrix(0.98, 0, 0.05, -1.38, 615.29, 1331.55)" xlink:href="#linear-gradient-2"/>
    <linearGradient id="linear-gradient-14" x1="21.16" y1="880.11" x2="37.44" y2="880.11" gradientTransform="matrix(0.98, 0, 0.05, -1.38, 673.92, 1331.55)" xlink:href="#linear-gradient-2"/>
    <linearGradient id="linear-gradient-15" x1="21.16" y1="880.11" x2="37.44" y2="880.11" gradientTransform="matrix(0.98, 0, 0.05, -1.38, 732.53, 1331.55)" xlink:href="#linear-gradient-2"/>
    <linearGradient id="linear-gradient-16" x1="21.16" y1="880.11" x2="37.44" y2="880.11" gradientTransform="matrix(0.98, 0, 0.05, -1.38, 791.16, 1331.55)" xlink:href="#linear-gradient-2"/>
    <linearGradient id="linear-gradient-17" x1="21.16" y1="880.11" x2="37.44" y2="880.11" gradientTransform="matrix(0.98, 0, 0.05, -1.38, 849.79, 1331.55)" xlink:href="#linear-gradient-2"/>
    <linearGradient id="linear-gradient-18" x1="21.16" y1="880.11" x2="37.44" y2="880.11" gradientTransform="matrix(0.98, 0, 0.05, -1.38, 908.42, 1331.55)" xlink:href="#linear-gradient-2"/>
    <linearGradient id="linear-gradient-19" x1="23.79" y1="878.3" x2="42.24" y2="878.3" gradientTransform="matrix(0.98, 0, 0.05, -1.38, 967.02, 1331.55)" xlink:href="#linear-gradient-2"/>
  </defs>
  <title>curtain</title>
  <g>
    <path class="cls-1" d="M22.47,5.61C20,5.61-6.06,2.82-6.21,6.77L3.28,218.47c.2-5.57.07,3.24,1.08,5C7.55,212.09,22,204,30.36,204c8.9,0,16.05,9.14,18,21.63H69.43C72.24,213.1,80.07,204,89,204s16.05,9.14,18,21.63h21.14C130.88,213.1,138.7,204,147.6,204s16.05,9.14,18,21.63H186.7C189.52,213.1,197.34,204,206.24,204s16,9.14,17.93,21.63H245.3C248.12,213.1,255.95,204,264.84,204s16.05,9.14,18,21.63h21.14C306.76,213.1,314.58,204,323.48,204s16.05,9.14,18,21.63h21.14C365.39,213.1,373.19,204,382.08,204s16.05,9.14,18,21.63h21.14C424,213.1,431.82,204,440.72,204s16.05,9.14,18,21.63h21.14C482.64,213.1,490.46,204,499.36,204s16.05,9.14,18,21.63h21.11C541.24,213.1,549.07,204,558,204s16.05,9.14,18,21.63h21.14C599.88,213.1,607.71,204,616.6,204s16.05,9.14,18,21.63H655.7C658.52,213.1,666.34,204,675.24,204s16.05,9.14,18,21.63h21.11C717.12,213.1,724.95,204,733.85,204s16.05,9.14,18,21.63h21.14C775.76,213.1,783.59,204,792.48,204s16.05,9.14,18,21.63h21.14C834.4,213.1,842.22,204,851.12,204s16,9.14,17.93,21.63h21.14C893,213.1,900.83,204,909.72,204s16.05,9.14,18,21.63h21.14C951.64,213.1,959.46,204,968.36,204s16.05,9.14,18,21.63h21.14C1010.27,213.1,1018.07,204,1027,204c5.63,0,14.54,4.66,17.89,10.5l3.33-201.68c.14-4,2.29-10.17-.16-10.17L-1.52-.39Z"/>
    <path id="a" class="cls-2" d="M33.25,2.61C22.11,43.66,9.55,166.77,7.37,210.14c.14,1.27,1.47,1.42,2,2.32,3.19-11.38,14.62-11.52,23-11.52,8.9,0,16.05,9.14,18,21.63h.77c1.24-34,6-176.43-4-220H33.25Z"/>
    <path id="a-2" data-name="a" class="cls-3" d="M91.87,5.61C80.74,46.66,73.17,176.77,71,220.14a8.71,8.71,0,0,0,1,3.32c3.19-11.38,10.62-19.52,19-19.52,8.9,0,16.05,9.14,18,21.63h.77c1.24-34,6-176.43-4-220H91.87Z"/>
    <path id="a-3" data-name="a" class="cls-4" d="M150.49,5.61c-11.13,41.06-18.7,171.17-20.87,214.53a8.71,8.71,0,0,0,1,3.32c3.19-11.38,10.62-19.52,19-19.52,8.9,0,16.05,9.14,18,21.63h.77c1.24-34,6-176.43-4-220H150.49Z"/>
    <path id="a-4" data-name="a" class="cls-5" d="M209.12,5.61C198,46.66,190.42,176.77,188.25,220.14a8.71,8.71,0,0,0,1,3.32c3.19-11.38,10.62-19.52,19-19.52,8.9,0,16.05,9.14,18,21.63H227c1.24-34,6-176.43-4-220H209.12Z"/>
    <path id="a-5" data-name="a" class="cls-6" d="M267.75,5.61C256.62,46.66,249,176.77,246.88,220.14a8.71,8.71,0,0,0,1,3.32c3.19-11.38,10.62-19.52,19-19.52,8.9,0,16.05,9.14,18,21.63h.77c1.24-34,6-176.43-4-220H267.75Z"/>
    <path id="a-6" data-name="a" class="cls-7" d="M326.38,5.61c-11.13,41.06-18.7,171.17-20.87,214.53a8.71,8.71,0,0,0,1,3.32c3.19-11.38,10.62-19.52,19-19.52,8.9,0,16.05,9.14,18,21.63h.77c1.24-34,6-176.43-4-220H326.38Z"/>
    <path id="a-7" data-name="a" class="cls-8" d="M385,5.61c-11.13,41.06-18.7,171.17-20.87,214.53a8.71,8.71,0,0,0,1,3.32c3.19-11.38,10.62-19.52,19-19.52,8.9,0,16.05,9.14,18,21.63h.77c1.24-34,6-176.43-4-220H385Z"/>
    <path id="a-8" data-name="a" class="cls-9" d="M443.62,5.61c-11.13,41.06-18.7,171.17-20.87,214.53a8.71,8.71,0,0,0,1,3.32c3.19-11.38,10.62-19.52,19-19.52,8.9,0,16.05,9.14,18,21.63h.77c1.24-34,6-176.43-4-220H443.62Z"/>
    <path id="a-9" data-name="a" class="cls-10" d="M502.25,5.61c-11.13,41.06-18.7,171.17-20.87,214.53a8.71,8.71,0,0,0,1,3.32c3.19-11.38,10.62-19.52,19-19.52,8.9,0,16.05,9.14,18,21.63h.77c1.24-34,6-176.43-4-220H502.25Z"/>
    <path id="a-10" data-name="a" class="cls-11" d="M560.88,5.61C549.75,46.66,542.18,176.77,540,220.14a8.71,8.71,0,0,0,1,3.32c3.19-11.38,10.62-19.52,19-19.52,8.9,0,16.05,9.14,18,21.63h.77c1.24-34,6-176.43-4-220H560.88Z"/>
    <path id="a-11" data-name="a" class="cls-12" d="M619.5,5.61c-11.13,41.06-18.7,171.17-20.87,214.53a8.71,8.71,0,0,0,1,3.32c3.19-11.38,10.62-19.52,19-19.52,8.9,0,16.05,9.14,18,21.63h.77c1.24-34,6-176.43-4-220H619.5Z"/>
    <path id="a-12" data-name="a" class="cls-13" d="M678.13,5.61C667,46.66,659.43,176.77,657.25,220.14a8.71,8.71,0,0,0,1,3.32c3.19-11.38,10.62-19.52,19-19.52,8.9,0,16.05,9.14,18,21.63H696c1.24-34,6-176.43-4-220H678.13Z"/>
    <path id="a-13" data-name="a" class="cls-14" d="M736.75,5.61c-11.13,41.06-18.7,171.17-20.87,214.53a8.71,8.71,0,0,0,1,3.32c3.19-11.38,10.62-19.52,19-19.52,8.9,0,16.05,9.14,18,21.63h.77c1.24-34,6-176.43-4-220H736.75Z"/>
    <path id="a-14" data-name="a" class="cls-15" d="M795.37,5.61c-11.13,41.06-18.7,171.17-20.87,214.53a8.71,8.71,0,0,0,1,3.32c3.19-11.38,10.62-19.52,19-19.52,8.9,0,16.05,9.14,18,21.63h.77c1.24-34,6-176.43-4-220H795.37Z"/>
    <path id="a-15" data-name="a" class="cls-16" d="M854,5.61c-11.13,41.06-18.7,171.17-20.87,214.53a8.71,8.71,0,0,0,1,3.32c3.19-11.38,10.62-19.52,19-19.52,8.9,0,16.05,9.14,18,21.63h.77c1.24-34,6-176.43-4-220H854Z"/>
    <path id="a-16" data-name="a" class="cls-17" d="M912.63,5.61c-11.13,41.06-18.7,171.17-20.87,214.53a8.71,8.71,0,0,0,1,3.32c3.19-11.38,10.62-19.52,19-19.52,8.9,0,16.05,9.14,18,21.63h.77c1.24-34,6-176.43-4-220H912.63Z"/>
    <path id="a-17" data-name="a" class="cls-18" d="M971.26,5.61c-11.13,41.06-18.7,171.17-20.87,214.53a8.71,8.71,0,0,0,1,3.32c3.19-11.38,10.62-19.52,19-19.52,8.9,0,16.05,9.14,18,21.63h.77c1.24-34,6-176.43-4-220H971.26Z"/>
    <path id="a-18" data-name="a" class="cls-19" d="M1029.86,5.61c-11.13,41.06-18.7,171.17-20.87,214.53a8.71,8.71,0,0,0,1,3.32c3.19-11.38,10.62-19.52,19-19.52,8.9,0,20.05,10.14,22,22.63l1.77,4c1.24-34,1-181.43-9-225h-13.81Z"/>
  </g>
</svg>
