<svg id="Layer_1" data-name="Layer 1" xmlns="http://www.w3.org/2000/svg" viewBox="0 0 337 610">
  <defs>
    <style>
      .cls-1 {
        fill: #020202;
      }

      .cls-2 {
        fill: #444243;
      }

      .cls-10, .cls-11, .cls-12, .cls-13, .cls-14, .cls-18, .cls-2, .cls-24, .cls-3, .cls-4, .cls-5, .cls-7, .cls-9 {
        stroke: #000;
      }

      .cls-10, .cls-11, .cls-12, .cls-13, .cls-14, .cls-17, .cls-18, .cls-19, .cls-2, .cls-20, .cls-23, .cls-24, .cls-26, .cls-3, .cls-4, .cls-5, .cls-7, .cls-9 {
        stroke-miterlimit: 10;
      }

      .cls-11, .cls-2, .cls-23, .cls-26, .cls-9 {
        stroke-width: 0.5px;
      }

      .cls-3 {
        fill: #f2f0f0;
      }

      .cls-26, .cls-4, .cls-9 {
        fill: none;
      }

      .cls-5 {
        fill: #bcbbbb;
      }

      .cls-6 {
        fill: #4c4c4c;
      }

      .cls-10, .cls-11, .cls-12, .cls-7 {
        fill: #9e9e9e;
      }

      .cls-8 {
        fill: #605f60;
      }

      .cls-10 {
        stroke-width: 0.75px;
      }

      .cls-12, .cls-17, .cls-18, .cls-19, .cls-24 {
        stroke-width: 0.25px;
      }

      .cls-13, .cls-22 {
        fill: #333;
      }

      .cls-14 {
        fill: #ddd;
      }

      .cls-15 {
        fill: gray;
      }

      .cls-16, .cls-24 {
        fill: #1a1a1a;
      }

      .cls-17, .cls-18 {
        fill: #fff;
      }

      .cls-17, .cls-19 {
        stroke: #4d4d4d;
      }

      .cls-19, .cls-21 {
        fill: #666;
      }

      .cls-20 {
        fill: #000107;
        stroke: #010101;
      }

      .cls-23, .cls-25 {
        fill: #f2f2f2;
      }

      .cls-23, .cls-26 {
        stroke: #231f20;
      }

      .cls-23, .cls-24, .cls-26 {
        stroke-linecap: round;
      }

      .cls-27 {
        fill: #262424;
      }
    </style>
  </defs>
  <title>prof1-01</title>
  <g id="shoes">
    <path class="cls-1" d="M69.68,575.08s-17,8.13-18.28,13.55,2,5.42,2,5.42H67s19-5.42,18.28-8.13l.69-14.24Z"/>
    <path class="cls-1" d="M120.28,576.34s17,8.13,18.28,13.55-2,5.42-2,5.42H123s-19-5.42-18.28-8.13L104,572.94Z"/>
  </g>
  <g id="Legs">
    <path class="cls-2" d="M62,456.66,64.57,576.4s13.87,7.56,23.95,1.89l1.26-121Z"/>
    <path class="cls-2" d="M98,457.29,100.49,577s13.87,7.56,23.95,1.89l1.26-121Z"/>
  </g>
  <g id="Upper_body" data-name="Upper body">
    <path class="cls-3" d="M45.29,390.67c-1.45-2.46-4-6.87-4-7.75,0-1.26,1.89-3.15,1.89-3.15l-.63-9.45c-6.93,5.67-20.17-.63-20.17-.63v12l1.89,1.26s-.25,1.07-.63,2.71c-1.26,5.61-3.78,18.09-1.89,22.5,2.52,5.67,1.89,6.93,4.41,7.56s8.19,3.15,9.45.63c.19-.38.44-.5.69-.44,1.58.38,4.35,7.37,4.35,7.37s3.78,3.15,3.78,0c0-2.33.69-12.73,1.07-17.9Z"/>
    <g id="hand">
      <path class="cls-3" d="M290.65,189.78c-2,1.79-3.92,4.2-7,4.18a5.57,5.57,0,0,1-3.4-1.38L271,194.65c6.67,6,2.47,20,2.47,20l11.83-1.84,1-2.06L289,211c5.74.38,18.45,1,22.52-1.59,5.22-3.36,6.56-2.93,6.8-5.52s1.86-8.58-.83-9.44c-.07,0-.24-.23-.52-.43-2.9-2-8.47-.18-10,.49,5.19-2,11.38-4.07,16.57-6.11,0,0,1.56-2.6.72-3.49a1.55,1.55,0,0,0-1.31-.25c-3.12.43-15.51,3.1-16.49,3.35-3-1.36-6.06-2-11.13-.38A20.75,20.75,0,0,0,290.65,189.78Z"/>
      <path class="cls-4" d="M307.63,194.5c-.39.12-4.14,1-4.25,2.5-.13,1.7,3.28,2.06,4.75,2.5,1.09.33,11.67-2.11,10.5-1.5"/>
      <path class="cls-4" d="M306.75,199.75c-.39.12-4.14,1-4.25,2.5-.13,1.7,3.28,2.06,4.75,2.5,1.09.33,11.67-2.11,10.5-1.5"/>
      <path class="cls-4" d="M312.13,204.25c-3.12,1-7.08,1.16-7.25,3.5-.13,1.7,2.28,1.06,3.75,1.5,1.09.33,7.42-2.61,6.25-2"/>
      <path class="cls-4" d="M301.69,187c.4,0,4.26-.1,4.75,1.31.56,1.61-2.63,2.84-3.94,3.65-1,.6-8.82,3-7.53,3.28"/>
    </g>
    <path class="cls-5" d="M136.33,372c-.11-15.12-1.78-46.75-2.12-58.63a303.68,303.68,0,0,1,4.15-58.43c5.33-.89,110-29.48,110.59-29.79.38-.19,23.76-8.44,24.07-8.69.82-.57,2.51-21.2,3.08-22,.88-1.2-.8-.65-1.12-2.16-1.26-5-109.28,17.59-145.07,22.38,0,0,2.59-8.38-12.47-13.36s-45.88.13-45.88.13-15.13,5-12,13.87c0,0-3.78-3.15-12,5.67s-15.13,25.84-15.13,25.84-1.89-.63-7.56,23.32-7.56,94.53-7.56,94.53.19,3.21,5,5c0,0,13.23,6.3,20.17.63l2.52-.63.25,21c.57,1,1,1.7,1,1.7l-.63,10.08s-.06,1.13-.19,2.9l.82,70.21s34.66,19.54,88.86,0l1.26-70.33a25.88,25.88,0,0,1,.13-7.31c0-3-.1-7.49-.16-13C136.37,377.89,136.34,372.74,136.33,372Z"/>
    <path class="cls-5" d="M46.29,392.38l-.63,10.08s-.06,1.13-.19,2.9l-.19-14.68C45.85,391.68,46.29,392.38,46.29,392.38Z"/>
    <g id="Upper_details" data-name="Upper details">
      <polyline class="cls-4" points="44.4 264.44 45.03 365.91 42.51 370.32"/>
    </g>
    <path class="cls-4" d="M28,412.54l1.07,3.91Z"/>
    <path class="cls-4" d="M35.58,412.54l.76,3.66Z"/>
    <line class="cls-4" x1="24.24" y1="382.92" x2="41.25" y2="382.92"/>
    <path class="cls-6" d="M49.33,224.16c-3.5,7-3,8.94-11.34,18.37s-8.52,17-8.52,17,2.77-11.48,7.87-19.29c3.6-5.2,8.52-15.11,12.7-19.63,3.3-3.41,7.59-4.83,8.34-4.34S50.29,221.07,49.33,224.16Z"/>
    <path class="cls-6" d="M134,253.41c6.21,1.88,3.87,1.86-.79,1.84-3.16-.19-12.93,3.43-12.92,2.5S127.8,251.53,134,253.41Z"/>
    <path class="cls-6" d="M132.84,257c7.31-1.75,4.83-.56-.13,1.84-3.42,1.49-12.41,9.36-12.76,8.64S125.54,258.73,132.84,257Z"/>
    <path class="cls-6" d="M134,258.55c4.84-4.6,3.39-2.61.5,1.38-2.05,2.63-6.17,12.39-6.66,12C127.77,271.87,130,262.41,134,258.55Z"/>
    <path class="cls-6" d="M60.49,474c-17.4-5.36-10.74-4.09,2.6-1.54,9,1.91,37.63,3.32,37.44,4.3S77.9,479.35,60.49,474Z"/>
    <path class="cls-6" d="M21.13,366c-5.91-4.72-3.41-3.55,1.58-1.23C26,366.54,38,368.18,37.6,369S27,370.76,21.13,366Z"/>
    <path class="cls-6" d="M268,198.55c4.84-4.6,3.39-2.61.5,1.38-2.05,2.63-6.17,12.39-6.66,12C261.77,211.87,264,202.41,268,198.55Z"/>
    <path class="cls-6" d="M269.46,194.35c6-3,4-1.49.07,1.46-2.74,1.91-9.55,10-9.91,9.53C259.53,205.23,264.44,196.84,269.46,194.35Z"/>
    <line class="cls-4" x1="286.23" y1="211.41" x2="285.26" y2="193.43"/>
  </g>
  <g id="Necklace">
    <g id="Necklace-2" data-name="Necklace">
      <path class="cls-7" d="M76,224.55l5.8.25-5.8-.25,5.8.25s-1.83,8.07,3.66,9.14,10.34.57,12.16-2.14a20.11,20.11,0,0,0,2.46-7l4.85,1.64s-1.2,11.85-5.48,11.85c0,0-16.39,5.42-21.24-2.71-.06,0-5.55-2.14-2.21-11s5.8.25,5.8.25l-5.8-.25"/>
      <g>
        <path class="cls-8" d="M68.35,198.9s-5.67.63-4.73,5,8.51,9.45,8.51,9.45,5.67,13.23,2.52,15.76S65.83,260,65.83,260v37.18S74,319.9,81.59,330.61c0,0-12,7.56-7.56,16.39,0,0,2.52,9.45,10.71,10.08s14.5-1.89,16.39-6.3c0,0,4.41-3.78,0-13.23S93.56,330,93.56,330l15.76-31.51s1.26-34,.63-43.49-5-26.47-5-26.47S103,221,111.21,214s10.08-7.56,10.08-7.56,3.78-2.52,1.26-5-7.56-3.78-7.56-3.78l.63,6.93s-16.39,13.23-16.39,17,11.34,68.69,2.52,78.15l-12.6,29.62H84.74s-12-22.69-11.34-27.1c0,0-4.41-15.76-3.15-28.36S81,226.63,81,226.63s-1.26-10.08-3.78-14.5l-7.56-7.56Z"/>
        <path class="cls-9" d="M68.35,198.9s-5.67.63-4.73,5,8.51,9.45,8.51,9.45,5.67,13.23,2.52,15.76S65.83,260,65.83,260v37.18S74,319.9,81.59,330.61c0,0-12,7.56-7.56,16.39,0,0,2.52,9.45,10.71,10.08s14.5-1.89,16.39-6.3c0,0,4.41-3.78,0-13.23S93.56,330,93.56,330l15.76-31.51s1.26-34,.63-43.49-5-26.47-5-26.47S103,221,111.21,214s10.08-7.56,10.08-7.56,3.78-2.52,1.26-5-7.56-3.78-7.56-3.78l.63,6.93s-16.39,13.23-16.39,17,11.34,68.69,2.52,78.15l-12.6,29.62H84.74s-12-22.69-11.34-27.1c0,0-4.41-15.76-3.15-28.36S81,226.63,81,226.63s-1.26-10.08-3.78-14.5l-7.56-7.56Z"/>
      </g>
      <path class="cls-10" d="M78.5,339s3.91-9.71,12.29-5.86,8.45,9.71,8.45,9.71-.95,9.58-8.89,10-11.16-4.16-11.16-4.16S75.91,343.53,78.5,339Z"/>
      <path class="cls-11" d="M82.47,341.64s2.27-5.61,7.12-3.4,4.85,5.61,4.85,5.61-.57,5.55-5.17,5.8-6.49-2.39-6.49-2.39S81,344.29,82.47,341.64Z"/>
      <path class="cls-12" d="M84.23,342.15s1.76-4.41,5.55-2.65,3.84,4.41,3.84,4.41-.44,4.35-4,4.54-5-1.89-5-1.89S83.1,344.23,84.23,342.15Z"/>
    </g>
  </g>
  <g id="Hair">
    <g id="third">
      <ellipse class="cls-13" cx="83.67" cy="122.58" rx="50.54" ry="61.07"/>
    </g>
    <g id="Head">
      <path class="cls-14" d="M59.53,97.43s1.89,57.35-1.26,58.61,9.45,18.28,10.08,22.06S71.5,202,69.61,203.94s8.19,8.19,8.19,8.19l30.25.63s5.67-7.56,8.82-8.19c0,0,1.26-22.06,2.52-25.21a94.59,94.59,0,0,1,8.19-13.87c1.76-2.21,1.07-4.41,1.13-9.77s.13-62.08.13-62.08S133.27,76,117.51,70.33,69,69.07,69,69.07Z"/>
    </g>
    <path id="light1" class="cls-15" d="M66,174.63s-1.89-4.41-2.52-4.41-5.61-.63-5.61-.63-3.72-2.52-2.52-3.78-5.61-1.26-5.61-1.26-11.22-4.41-6.24-6.3-3.09-4.41-3.09-4.41-5-3.78-.63-6.3-3.09,0-3.09,0S16,143.12,24.17,136.82c0,0-14.37-11.34-5.61-17.65s-2-7.56,14.81-14.5c0,0-2.33-10.08,2.65-10.71s6.18-8.82,6.18-8.82-4.29-10.08,3.15-10.08c0,0,1.89-15.13,14.37-18.28,0,0,7.5-2.52,8.76,0s11.85-17,20-7.56,11.85,3.78,13.74,0,8.13-1.89,6.24,6.3,12.48,3.78,12.48,3.78,15,1.26,4.35,13.23c0,0,15,0,10.59,12.6s16.2,0,16.83,7.56,21.24,10.08,6.24,18.91,1.26,3.78,1.26,3.78,21.24,8.19,1.26,20.8c0,0,0,15.13-7.5,10.08,0,0-3.72.63-4.35,6.93s-5.61,4.41-5.61,4.41-9.33,3.78-5.61,6.3-2.52,5.67-3.72,5-5.61,3.15-5.61,3.15l-6.87,3.15s3.34-7.25,3.72-8.13.69-1.76,1-2.65a23.08,23.08,0,0,0,1.51-6.87c0-5.67,8.76-22.69,8.76-22.69s-2.84-13.87-.95-19.54c1.26-3.78-14-15.88-16.51-19.54-3-4.41-3.4-11.72,0-16.39,1.39-1.89-10-1.26-10-1.26s-14.37-5-16.2-8.82c0,0-5.23,10.71-9.64,10.08S74.84,82,71.69,77.58s-9.33-3.78-9.33-3.78S59.28,85.14,52.41,87s-3.09,12-3.09,12,7.5,5,5.61,8.82-10.65,8.82-10.65,8.82-14.43,14.5-9.45,18.28,12,4.41,12,4.41-3.09,10.08-.63,9.45,3.72,3.78,3.72,3.78-1.26,12,5.61,9.45Z"/>
    <g id="dark2">
      <path class="cls-16" d="M89.84,69.7S89.15,78.33,77.11,77,66.4,89,66.4,89s-2,12-5.36,10.65-1.32,20.61-1.32,20.61L58.39,161.4s-.25,12,4.22,15.25S49,166,49,166s-8-14.62-.69-13.93-10.9-14.18-10.9-14.18-7.81-7.18,2.21-11.16c.06-.06-7.88,3.34-7.75,3.34,10-4,18.47-12.54,18.47-12.54s8-12,1.32-13.93S47,91,50.33,91,63.06,82.37,61,80.35s-1.32-10,5.36-6.62,20.73-7.94,20.73-7.94,5.36-4.66,6-.69A3.91,3.91,0,0,1,89.84,69.7Z"/>
    </g>
    <path id="dark1" class="cls-16" d="M124.76,168.33s10.08-2.52,8.19-10.71a28.44,28.44,0,0,1,.44-14.68,52.1,52.1,0,0,0,7.12-14.31c3-10-3.78-8.82-4.41-13.87-.82-6.43-2.52-6.93-6.3-10.71s-12-11.34-12-11.34,12.6,19.54,12,28.36S124.76,168.33,124.76,168.33Z"/>
  </g>
  <g id="bow">
    <path class="cls-17" d="M88.67,209.67c-1-3-4-4-10-7l-5-2c-5,1-8,13-2,16s6,0,14-2l3-2A3,3,0,0,0,88.67,209.67Z"/>
    <path class="cls-17" d="M87.67,207.67h9a3.67,3.67,0,0,1,1,3v2h-9c-1,0-1-1-1-3S86.67,207.67,87.67,207.67Z"/>
    <path class="cls-17" d="M95.67,206.67c1-3,4-4,10-7l5-2c5,1,8,13,2,16s-6,0-14-2l-3-2A3,3,0,0,1,95.67,206.67Z"/>
    <path class="cls-17" d="M89.67,208.67c-1-3-4-4-10-7l-5-2c-5,1-8,13-2,16s6,0,14-2l3-2A3,3,0,0,0,89.67,208.67Z"/>
    <path class="cls-18" d="M96.67,208.67c1-3,4-4,10-7l5-2c5,1,8,13,2,16s-6,0-14-2l-3-2A3,3,0,0,1,96.67,208.67Z"/>
    <path class="cls-19" d="M111.67,199.67l-4,2-4,2h-3l-2,2,3-2,5-2,4-2C111.67,201.67,111.67,199.67,111.67,199.67Z"/>
    <path class="cls-19" d="M110.67,198.67h-3l-4,2-3,2-3,3,5-3Z"/>
    <path class="cls-19" d="M85.67,207.67l-2-2h-2l-6-2h0l3,2,6,4h1Z"/>
    <path class="cls-19" d="M88.67,207.67l-3-3-5-2h-7l5,2,4,2,4,2Z"/>
    <path class="cls-19" d="M94.67,209.67h-1a2,2,0,0,1,0-1h-2v2h4a3,3,0,0,1,0-1h-1Z"/>
  </g>
  <g id="hat">
    <path d="M128.55,64.81c2.95-2.95,1.47-5.89,2.95-19.16s8.84-22.1,7.37-28S49-1.5,43.08,19.13,46,28,49,44.18,47.5,64.81,51.92,69.23s14.74-4.42,32.42-5.89S121.18,72.18,128.55,64.81Z"/>
    <path class="cls-20" d="M155.33,97.42c17.63,13.12,21-32.75-50.45-44.2-28.6-4.58-118.33,38.7-71.47,53.52C7.44,98.52,125.67,75.33,155.33,97.42Z"/>
    <path class="cls-6" d="M132.86,21.13c1.47,7.37-4.42,11.79-7.37,23.58S124,59.44,124,59.44a92.37,92.37,0,0,1-1.47-16.21,75.15,75.15,0,0,1,2.95-17.68c1.47-4.42,2.95-8.84,4.42-8.84S131.39,18.18,132.86,21.13Z"/>
  </g>
  <g id="Face">
    <g id="Nose">
      <path class="cls-4" d="M85.37,138.71s3.15.19,4.41,2.46,5-.63,5-.63,1.89-2.84,3.15-1.89,5-6.18-.63-8.07l-.63-13.68"/>
    </g>
    <g id="mouth">
      <path class="cls-21" d="M104.59,151.31c0,3.15-7.5,7.56-12.92,7.56s-13.55-5-13.55-8.19,8.45-.63,13.87-.63S104.59,148.16,104.59,151.31Z"/>
    </g>
    <g id="eyebrows">
      <path class="cls-22" d="M62.36,102.79c.44-3.09,8.89-8,14.24-7.25S87.38,101,86.94,104s-6-2.39-11.34-3.15S61.92,105.87,62.36,102.79Z"/>
      <path class="cls-22" d="M121,102.79c-.44-3.09-8.89-8-14.24-7.25S96,101,96.4,104s6-2.39,11.34-3.15S121.42,105.87,121,102.79Z"/>
    </g>
    <g id="moustache">
      <path class="cls-22" d="M90.09,142.93s.63,5.8,0,7.12-7.56,4.35-13.23,1.64-.63-3.84-.63-3.84l8.82-.57,1.26-4.92C86.31,142.43,90.09,140.79,90.09,142.93Z"/>
      <path class="cls-22" d="M93.37,142.93s-.63,5.8,0,7.12,7.56,4.35,13.23,1.64.63-3.84.63-3.84l-8.82-.57-1.26-4.92C97.15,142.43,93.37,140.79,93.37,142.93Z"/>
    </g>
    <g id="eye">
      <path class="cls-23" d="M66.46,116.34s.76-9,6.62-9.58a8.21,8.21,0,0,1,8.07,4.6s3.66,6.62-.76,11.16S71.94,125,71.94,125,67,123.27,66.46,116.34Z"/>
    </g>
    <g id="eyes">
      <path class="cls-24" d="M74.46,113.18a2.27,2.27,0,0,1,2.33,2.27,2.18,2.18,0,0,1-.32,2,2.5,2.5,0,0,1-2,.32c-2.33-.32-2.33-1.7-2.33-2.27A2.41,2.41,0,0,1,74.46,113.18Z"/>
    </g>
    <g id="second_eye" data-name="second eye">
      <g>
        <path class="cls-25" d="M101.44,116.34s.82-9.2,6.74-9.77a8.43,8.43,0,0,1,8.26,4.73s3.72,6.74-.82,11.34-8.63,2.58-8.63,2.58S102.07,123.39,101.44,116.34Z"/>
        <path class="cls-26" d="M101.44,116.34s.82-9.2,6.74-9.77a8.43,8.43,0,0,1,8.26,4.73s3.72,6.74-.82,11.34-8.63,2.58-8.63,2.58S102.07,123.39,101.44,116.34Z"/>
      </g>
      <path class="cls-24" d="M110.2,113.12a2.33,2.33,0,0,1,2.39,2.33,2.45,2.45,0,0,1-.32,2.08,2.61,2.61,0,0,1-2.08.32c-2.39-.32-2.39-1.76-2.39-2.33A2.58,2.58,0,0,1,110.2,113.12Z"/>
    </g>
  </g>
  <path class="cls-6" d="M109.19,221.09c4-4.41,3.08-2.48,1.32,1.38-1.35,2.55-1.82,12.09-2.63,11.72S105.23,225.5,109.19,221.09Z"/>
  <path class="cls-6" d="M71.5,231.81c-3.76,4.58-3,2.62-1.38-1.32,1.23-2.61,1.27-12.16,2.09-11.83S75.26,227.22,71.5,231.81Z"/>
  <path class="cls-27" d="M69.63,575.54c-5.91-4.72-3.41-3.55,1.58-1.23,3.32,1.72,15.26,3.36,14.88,4.17S75.54,580.26,69.63,575.54Z"/>
  <path class="cls-27" d="M102.58,575.48c-.21-1.19,12.5,1.47,16.32.58,5.68-1,8.53-1.48,1.36,2.21S102.79,576.67,102.58,575.48Z"/>
  <path class="cls-27" d="M63,582c5.65-.36,3.78.4,0,1.91-2.59.87-9.08,7.32-9.41,6.49S57.35,582.39,63,582Z"/>
  <path class="cls-27" d="M130.47,584.58c3.85-.32,2.57.2,0,1.23-1.78.6-6.29,4.88-6.5,4.35S126.62,584.9,130.47,584.58Z"/>
</svg>
