<?xml version="1.0" encoding="utf-8"?>
<!-- Generator: Adobe Illustrator 21.1.0, SVG Export Plug-In . SVG Version: 6.00 Build 0)  -->
<svg version="1.1" id="Layer_1" xmlns="http://www.w3.org/2000/svg" xmlns:xlink="http://www.w3.org/1999/xlink" x="0px" y="0px"
	 viewBox="0 0 500 800" style="enable-background:new 0 0 500 800;" xml:space="preserve">
<style type="text/css">
	.st0{fill:#EDEDF4;}
	.st1{fill:#000002;}
	.st2{fill:#0C0C0C;}
	.st3{fill:#010105;}
	.st4{fill:#131313;}
	.st5{fill:#0F0F16;}
	.st6{fill:#333333;}
	.st7{fill:none;stroke:#000007;stroke-width:0.15;stroke-miterlimit:10;}
	.st8{fill:none;stroke:#000000;stroke-width:0.1;stroke-miterlimit:10;}
	.st9{fill:#000005;}
	.st10{fill:#000005;stroke:#000005;stroke-miterlimit:10;}
	.st11{fill:#222223;stroke:#222223;stroke-width:0.25;stroke-miterlimit:10;}
	.st12{fill:#444447;}
	.st13{fill:#B7B7B7;stroke:#B7B7B7;stroke-width:0.25;stroke-miterlimit:10;}
	.st14{fill:#79797C;stroke:#79797C;stroke-width:0.25;stroke-miterlimit:10;}
	.st15{fill:#F9F9F9;}
	.st16{fill:#CBCBD1;stroke:#E3E3E3;stroke-width:0.25;stroke-miterlimit:10;}
	.st17{fill:#E3E3E3;stroke:#E3E3E3;stroke-miterlimit:10;}
	.st18{fill:#000002;stroke:#000002;stroke-width:0.5;stroke-miterlimit:10;}
	.st19{fill:#000002;stroke:#000002;stroke-miterlimit:10;}
	.st20{fill:#333333;stroke:#333333;stroke-width:0.25;stroke-miterlimit:10;}
	.st21{fill:#222223;}
	.st22{fill:#050505;}
	.st23{fill:#0A0A0A;stroke:#4D4D4D;stroke-width:0.25;stroke-miterlimit:10;}
	.st24{fill:#010101;stroke:#010101;stroke-width:0.25;stroke-miterlimit:10;}
	.st25{fill:#000007;stroke:#000007;stroke-width:0.25;stroke-miterlimit:10;}
	.st26{fill:#000002;stroke:#000002;stroke-width:0.25;stroke-miterlimit:10;}
	.st27{fill:none;stroke:#000002;stroke-width:0.25;stroke-miterlimit:10;}
	.st28{fill:none;stroke:#000007;stroke-width:0.25;stroke-miterlimit:10;}
	.st29{fill:none;stroke:#000000;stroke-width:0.25;stroke-miterlimit:10;}
	.st30{fill:#FFFFFF;stroke:#999999;stroke-width:0.5;stroke-miterlimit:10;}
	.st31{stroke:#4D4D4D;stroke-width:0.25;stroke-miterlimit:10;}
	.st32{fill:#000107;stroke:#010101;stroke-miterlimit:10;}
	.st33{fill:#2E3192;}
	.st34{fill:#4C4C4C;}
	.st35{fill:#FFFFFF;stroke:#4D4D4D;stroke-width:0.25;stroke-miterlimit:10;}
	.st36{fill:#FFFFFF;stroke:#000000;stroke-width:0.25;stroke-miterlimit:10;}
	.st37{fill:#666666;stroke:#4D4D4D;stroke-width:0.25;stroke-miterlimit:10;}
	.st38{fill:none;stroke:#A9A9A9;stroke-width:0.25;stroke-miterlimit:10;}
	.st39{fill:#575757;}
	.st40{fill:#53545B;}
	.st41{fill:#535353;}
	.st42{fill:none;stroke:#8D8D8E;stroke-width:0.25;stroke-miterlimit:10;}
	.st43{fill:none;stroke:#535353;stroke-width:0.1;stroke-miterlimit:10;}
	.st44{fill:#646466;}
	.st45{stroke:#000000;stroke-miterlimit:10;}
	.st46{fill:#262628;}
	.st47{fill:#999999;}
	.st48{fill:none;stroke:#999999;stroke-miterlimit:10;}
	.st49{fill:#FFFFFF;stroke:#FFFFFF;stroke-miterlimit:10;}
	.st50{fill:#FFFFFF;}
	.st51{fill:#666666;stroke:#666666;stroke-width:0.25;stroke-miterlimit:10;}
	.st52{fill:#888888;}
	.st53{fill:#666666;}
	.st54{fill:#E3E3E3;stroke:#E3E3E3;stroke-width:0.25;stroke-miterlimit:10;}
	.st55{fill:#808080;stroke:#E3E3E3;stroke-width:0.25;stroke-miterlimit:10;}
	.st56{fill:#F2F2FC;stroke:#D9D9E8;stroke-width:0.25;stroke-miterlimit:10;}
	.st57{fill:#808084;}
	.st58{fill:#2F2F2F;}
	.st59{fill:#515151;}
	.st60{fill:#666668;}
	.st61{fill:#555559;}
	.st62{fill:#010107;}
</style>
<title>s14</title>
<g>
	<g id="Layer_1_1_">
		<path class="st0" d="M343,447c1-1,2,0,13,1c22,3,26,1,31,5s10,14,7,20s-6,5-8,5C368,484,340,453,343,447z"/>
		<path class="st0" d="M172,649c2,0,1,3,5,5s10,1,14,3s3,16-2,36c-1,4-2,9-6,10h-6c-4.1-1.6-7.8-4-11-7C154,684,166,648,172,649z"/>
		<path class="st1" d="M146,455l-9,8c0,0-12,8-26,10c-28,3-63-66-66-64s11,66,51,73c10,2,31,1,47-11s6-10,27-48c14-26,21-39,27-59
			c3-9,6-21,5-21s-8,17-11,24C183,388,169,417,146,455z"/>
		<path class="st2" d="M349,446c11,1,17,2,24,6s14,9,12,16s-14,8-21,9s-11,0-21-1s-11-2-13-5v-2c-2-6,1-10,3-17c0.5-1.3,0.8-2.6,1-4
			l0,0C335,445,349,446,349,446z"/>
		<path class="st3" d="M349,472c0,1,8,5,18,8l14,2c5,0,10-1,13-4s2-10,1-12s-8-11-10-13l-9-3l-17-4c0,0,16,4,25,12
			c2,1.9,3.4,4.3,4,7c0.5,3.1-0.3,6.3-2,9C380,483,350,470,349,472z"/>
		<path class="st4" d="M164,655c2-3,5-2,10-4s17-7,19-6s-1,20-3,26l0,0c-1,9-5,15-8,18s-5,5-7,5s-7-3-9-5s-6-12-6-14s0-5,1-11
			S163,656,164,655z"/>
		<path d="M191,678c-2,10-8,25-14,25s-10-10-11-13s-3-23-3-23s-1,23,4,34s8,9,10,10h6c4-2,8-11,8-11s4-12,7-22s4-15,1-18s-2-3-4-3
			S193,666,191,678z"/>
		<path class="st5" d="M49,421c-2,2,25,72,71,72c14,0,25-6,33-12s17-3,24-7l7-4l5-3c23-12,26-12,30-17s4-32,6-32s3,7,3,8
			c0.6,3,1,6,1,9c0,10-1,12,0,13l0,0c2,2,14-4,21-10s7-35,20-43s27-2,36,8s5,45-8,60s-24,16-23,17s9-1,17-5l9-5c19-15,29-22,34-29
			s12-16,10-24s-4-7-6-16s-1-5-1-7s-12-16-23-22s-23-11-33-15c-27-11-36-32-41-29s26,67,14,76c-1,1-5,1-10,0c-9.8-2-19.5-4.7-29-8
			c-20-8-51-9-56,1s8,16,6,34c-0.7,4.2-2.1,8.2-4,12l0,0c-3,4-10,3-11,3c-24-1-28,21-38,24C86,478,52,420,49,421z"/>
		<path id="spodnie" class="st6" d="M182,344c12.9-2.4,25.9-3.4,39-3c19,1,29,1,37,7s20,42,21,51c0.2,4,0.2,8,0,12
			c-0.8,11.9-3.1,23.7-7,35l-5,13c-1,4-10,34-6,36s4-3,9-9l23-24c19-19,28-28,35-26s7,23,21,29c3,1,9,3,13,8c1.5,2.1,2.5,4.5,3,7
			c2,13-51,32-54,33c-32,15-56,26-60,26h-20c-6,0-10,1-15-1c-3.1-1.4-5.8-3.4-8-6c-6-7-8-16-9-23s-5-37,5-56c4-7,6-15,10-23
			s4-9,3-10s-4,0-6,2s-2,3-3,6v4c-1.4,7.5-3.4,14.8-6,22l-6,20c-2,6-3,10-4,15c-0.5,4.3-0.5,8.7,0,13c1,11,1,22,2,33c5,53,4,50,5,53
			c4,17,10,31,7,42s-2,6-1,11s5,7,5,12s0,4-3,6s-18-7-32-4c-3.7,0.9-7.1,2.6-10,5c-11,2-15,0-17-2s0-6,0-14s-2-11-4-15l-2-5
			c-1-4.3-1.3-8.6-1-13c0-12-2-23-2-35c-1-43-4-41-3-63c0,0,2-30,11-47l9-15l3-5C168,431,178,403,182,344z"/>
		<path class="st7" d="M233,519h-3c-3,1-4,3-7,4s-13,2-14,3l2,2c3.2,1.3,6.8,1.3,10,0c3-2,3-3,6-4h4"/>
		<path class="st1" d="M245,522l-4,6c-1.9,2.2-4.3,3.9-7,5c-3.4,1.7-7.2,2.4-11,2c-8-1-12-6-14-8s-7-16-8-29c-0.4-5.7-0.4-11.3,0-17
			c0.3-6.4,1-12.7,2-19c1-9,3-17,6-27s9-19,8-20s-4,3-6,7c-2,3.4-3.3,7.1-4,11c-2,12-4,12-7,26c-2.4,13.5-3.1,27.3-2,41
			c1,18,5,25,8,29s6,7,10,9s11-2,23-1h8c18,3,54-19,57-21l67-42l-8,5l-27,17c-10,4-24,11-40,20s-36,15-45,15h-10L245,522z"/>
		<path class="st1" d="M170,417c-1,0-4,8-23,46c-7,15-13,28-14,46c0,1,0,2,0,5c1,34,6,66,6,66s-3-22-3-45c-0.1-7,0.3-14,1-21
			c1-7,2-12,2-14c1.5-7.8,3.5-15.5,6-23c7-21,15-25,22-47C169,425,171,418,170,417z"/>
		<path class="st8" d="M139,535l7,2h12"/>
		<path class="st8" d="M135,531c17-9,21-10,22-8s-6,12-14,12s-6-1-6-2s14,1,18-6v-3"/>
		<path class="st9" d="M278,380c-1.4-6.3-3.8-12.4-7-18c-3-6-9-15-20-19s-24-1-24,0l13,3c14,3,17,2,20,5s2,3,6,15s6,17,8,25
			c1.2,6.3,1.9,12.6,2,19c0,34-24,66-17,83c1,1,2,5,3,5s-1-4-1-10c0.1-3.4,0.8-6.8,2-10c4-14,8-20,10-30l2-10
			C280,413,283,398,278,380z"/>
		<path class="st10" d="M273,489l10-11c11.3-13.3,21.6-27.3,31-42c1-2,2-4,4-4s11,20,30,34s21,9,21,9s-8-3-16-10s-6-7-11-11l-10-5
			c-12-7-12-22-17-22s-3,2-7,9c-10,18-11,24-18,31l-7,7l-11,12c-4,4-7,7-12,10l-10,5c0,0,5,0,11-3S266,495,273,489z"/>
		<path class="st7" d="M237,418c-6.1,12.1-10.8,24.8-14,38c-5.3,21.9-6.3,44.7-3,67c17.2,1.9,34.5,0.2,51-5c32-10,52-32,59-41"/>
		<path class="st7" d="M260,493h-3l-4,2h-6"/>
		<path class="st7" d="M259,494h-8l-5-2"/>
		<path class="st7" d="M176,439c-4,12-8,24-12,38s-8,32-11,47l4,37c2.7,25.3,5.7,50.7,9,76"/>
		<path class="st11" d="M193,213c-2-2-4-1-8,0s-17,2-29,2h-9l-13,2c-9,2-24,15-26,17l-28,26c-16,18-24,27-24,34s17,18,50,37
			c9,5,19,11,26,7s3-3,8-11s13-14,12-18s-11-9-21-12s-26-4-27-7s10-6,24-14s24-22,30-20s14,36,11,59c-1,4-1,8-3,14
			c-7,33-11,53-24,74c-6.9,11.1-15.3,21.2-25,30c-12,11-17,16-24,17c-25,3-47-45-49-44s22,70,63,73c7.6,0.7,15.2-0.7,22-4
			c12-6,19-18,32-40l4-7l10-22l0,0c7-9,10-17,16-29s6-12,8-17c1.7-5.5,2.7-11.2,3-17c2-38,2-67,1-81c0,0-1-20-5-32l-2-7
			C195,218,195,215,193,213z"/>
		<path class="st12" d="M139,344c-1-1,0-2,0-5v-6h15l7,6h1v8l-8,2l-11-4C142,346,140,345,139,344z"/>
		<path class="st13" d="M52,596c-1,0,2-12,4-16c17-54,81-207,83-219l3-9c2-4,2-5,4-5s6,2,7,3C80,535,63,576,58,586S53,597,52,596z"
			/>
		<path class="st14" d="M54,585h4c1,1-1,4-3,7l-5,10l-2,2l0,0c0-1,0-2,1-3l2-7v-3c1-2,0-3,1-5v-2L54,585z"/>
		<path class="st15" d="M147,354c0-1-1-2,0-3s4-2,5-1s-3,8-9,23l-4,10c-9,24-43,104-44,104l3-7c13-33,21-48,32-78l4-12
			C141,374,149,361,147,354z"/>
		<path class="st16" d="M160,318l3,2l2,2l6,2c5,3,7,15,7,17h-4l-2-6l-2-6l-4-3c1.7,0.5,3.1,1.5,4,3c1,1,1,2,1,4l3,10
			c-0.1,0.8-0.4,1.5-1,2h-2c-1,0,0-1-1-4v-6c0.1-1.4-0.3-2.8-1-4c-0.9-1.5-2.3-2.5-4-3h2c6,4,7,16,5,17h-2l-2-8v-2l-3-3h-2
			c2.1,1.1,3.9,2.9,5,5c1,2,1,3,2,8s2,5,2,6h-2c-2-1-2-4-4-7s-5-5-7-6h-6l-11-4c-1-2,2-5,7-12l4-4C153,314,158,317,160,318z"/>
		<path class="st17" d="M196,195c-2,2,2,5,0,13s-2,5-1,7s2,3,9,5l12,3c3,0,6-1,16-5s13-3,14-6s-1-2-3-8s-3-7-4-8s-8,2-15,4
			S200,192,196,195z"/>
		<path class="st7" d="M230,520l-4,4l-3,4c-1,2-4,3-10,1"/>
		<path class="st9" d="M206,646c0,0-3-4-3-10s2-6,3-10s0-10-1-16s-4-9-7-17s-1-11-4-31s-2-9-3-18s-2-32-1-32s3,16,4,28s3,29,3,33
			c-0.4,5,0,10.1,1,15l2,7c1.9,8.5,2.6,17.3,2,26c0,9-2,11,0,17S206,646,206,646z"/>
		<path class="st18" d="M226,404c0,0-1,6-5,11l-4,3l0,0C225,415,226,404,226,404z"/>
		<path class="st19" d="M213,421c-1-2-6-2-12-4s-14-11-14-10l8,10l7,9c8,12-7,29-10,58c-1,6-2,12-2,18s0,10-2,15s-5,7-5,7l7-7
			c8-11,2-20,5-41c2-10,6-27,10-33s3-6,4-11c-0.2-1.3-0.2-2.7,0-4C211,423,214,422,213,421z"/>
		<path class="st20" d="M226,380v4h6l3,4l2,3l-5,4l7-4l-3-7L226,380z"/>
		<path class="st21" d="M244,212c2-3,7-2,10-2c20,1,22-3,32,1s5,4,16,14s18,11,24,18s6,7,13,48c4,23,5,32,1,35s-4,1-9-1s-18-7-34-27
			l-9-14c-7-11-9-17-11-16s-1,8-1,11c4,42,35,67,35,67c12.3,1.9,24.1,5.9,35,12c7,4,13,7,18,14s8,27,8,33c-2,27-21,44-26,49
			s-21,19-40,19s-35-12-35-13s19,13,36,7s39-48,26-74c-6-11-17-19-18-20s-12-6-24-10s-24-5-34-11c-5.3-3.2-10-7.3-14-12
			c-8-36-10-65-9-79c0.6-10.8,2.3-21.5,5-32c1-3,2-5,3-10S244,213,244,212z"/>
		<path class="st22" d="M279,287c-2-11-2-19-3-19s-1,14,0,24s1,9,1,11s1,10,3,15s9,15,13,18c17,15,30,10,51,23c8,5,23,14,27,31
			s-5,31-13,43s-24,38-53,39c-18,1-32-10-32-10s18,14,39,12s35-19,41-26s31-38,18-69c-3-8-9-13-12-16c-20-19-40-12-58-28
			c-5-4-11-11-15-23C283,303.9,280.6,295.5,279,287z"/>
		<path class="st23" d="M254,350c0,0-6-7-10-17s-3-18-3-23s2-14,6-26s7-21,12-31c4.9-9.1,11-17.5,18-25l-33-16c-3,12-6,23-7,30
			c-6,34-4,55-4,60c2,20,6,30,11,37S254,351,254,350z"/>
		<path class="st22" d="M330,249l-5-8c-5-7-17-24-23-22s-2,3-4,7s-2,11-3,11s-3-3-3-7s1-4,4-8l4-6l2-3c2-1,4,0,5,1s24,31,24,31l0,0
			c1,3,14,69,12,77c-0.3,2-1.4,3.8-3,5h-5l-7-3h-1c-3-1-9-5-17-15c-6.6-7.8-12-16.6-16-26c-15-36-7-93-7-93s-12,69,10,104
			c8,12,20,20,20,20l6,5l6,3c2,1,7,1,9-1s2-10-2-37l-2-13C333,261,333,256,330,249z"/>
		<path class="st24" d="M247,211c0,1,42-4,45,6s-2,6-1,7s10-6,9-10s-3-2-13-3s-26-1-32-1L247,211z"/>
		<path class="st25" d="M150,252c-3,0-5,3-5,3h5l5,2c0,1-4,1-8,3s-7,6-12,11s-5,2-24,13c-4,2-6,4-10,4s-13-3-13-3s6,4,14,4
			s12-3,33-16s23-14,22-17S153,252,150,252z"/>
		<path class="st26" d="M150,227c-2-4-5-7-8-8s-6,1-10,3l-19,12l-23,21c-20,18-27,23-30,33s-2,8-3,8s0-6,0-6c1-12,15-23,31-37
			s18-18,29-25s26-12,28-11s9,18,9,18C153,232.2,151.6,229.5,150,227z"/>
		<path class="st27" d="M160,255l-5-7l-5-5"/>
		<path class="st27" d="M159,255c-1.5-2.4-3.6-4.5-6-6c-3.3-2-7.1-3.1-11-3"/>
		<path class="st27" d="M158,255l-6-3h-6"/>
		<path class="st25" d="M120,294l13,4l13,5c4,2,6,4,6,6c0.2,1.7-0.1,3.5-1,5c-1,3-3,3-7,6l-6,6c0,0,1-3,3-6s8-6,8-8s-1-5-19-12
			s-31-8-31-9S109,292,120,294z"/>
		<path class="st28" d="M102,291l-5-2c-3-0.2-5.9,0.9-8,3"/>
		<path class="st27" d="M102,291l-7-3c-3.5-0.5-7,0.2-10,2"/>
		<path class="st28" d="M103,289c-1.8-1.1-3.9-1.5-6-1c-3,1-6,4-6,7"/>
		<path class="st28" d="M279,266c0-2.4,0.3-4.7,1-7l3-6"/>
		<path class="st29" d="M285,252l-3,3c-1.1,2.2-1.8,4.6-2,7c0,2,0,4-1,4h-1c-1-1,0-4,1-8s1-6,2-10"/>
		<path class="st23" d="M201,339c-1,0-1-9-4-23s-2-15-10-33l-25-59l30-13c2,8,5,18,7,30c3.5,19.8,5.1,39.9,5,60
			C204,320,203,339,201,339z"/>
		<path class="st30" d="M217,227l-23-18l-12,9h11c4.7,11.9,8,24.3,10,37c1,6.6,1.7,13.3,2,20c1,25-1,50-3,69h43
			c-4.5-9.6-7.8-19.7-10-30c-5-22-3-39,0-55c4-27,10-38,14-38h10c0-1-6-5-11-6S220,224,217,227z"/>
		<ellipse class="st31" cx="222" cy="250" rx="2" ry="2"/>
		<ellipse class="st31" cx="219" cy="235" rx="2" ry="2"/>
		<ellipse class="st31" cx="222" cy="265" rx="2" ry="2"/>
		<ellipse class="st31" cx="222" cy="281" rx="2" ry="2"/>
		<ellipse class="st31" cx="222" cy="298" rx="2" ry="2"/>
		<ellipse class="st31" cx="222" cy="316" rx="2" ry="2"/>
		<ellipse class="st31" cx="221" cy="332" rx="2" ry="2"/>
		<g id="hat">
			<path d="M307,92c3,0,4-2,11-7s16-5,18-8s-29-55-43-49s-3,5-10,14s-12,9-12,13s8,6,17,14S300,92,307,92z"/>
			<path class="st32" d="M285,125c7,4,16,8,22,5c6-3,9-38-6-58s-57-31-66-20S252,107,285,125z"/>
			<path class="st33" d="M256,60c-4,2-7,6-7,10s0,7,8,19s12,17,19,21s13,7,20,2s4-13,4-15C298,75,269,54,256,60z"/>
			<path class="st34" d="M302,126c-4,1-8-1-8-1s6,3,11,2c5-1,7-26,6-26S312,122,302,126z"/>
			<path class="st34" d="M336,77c-3,4-8,3-15,7s-8,6-8,6l8-8l10-6c3-1,6-3,7-2S336,76,336,77z"/>
		</g>
		<path class="st35" d="M215,224c-1-3-4-4-10-7l-5-2c-5,1-8,13-2,16s6,0,14-2l3-2C215.5,226.1,215.5,224.9,215,224z"/>
		<path class="st35" d="M214,222h9c1,1,1,2,1,3s0,2,0,2h-9c-1,0-1-1-1-3S213,223,214,222z"/>
		<path class="st35" d="M223,222c1-3,4-4,10-7l5-2c5,1,8,13,2,16s-6,0-14-2l-3-2C222.5,224.1,222.5,222.9,223,222z"/>
		<path class="st35" d="M216,223c-1-3-4-4-10-7l-5-2c-5,1-8,13-2,16s6,0,14-2l3-2C216.5,225.1,216.5,223.9,216,223z"/>
		<path class="st36" d="M223,223c1-3,4-4,10-7l5-2c5,1,8,13,2,16s-6,0-14-2l-3-2C222.5,225.1,222.5,223.9,223,223z"/>
		<path class="st37" d="M238,215l-4,2l-4,2h-3l-2,2l3-2l5-2l4-2C238,216,238,215,238,215z"/>
		<path class="st37" d="M237,213h-3l-4,2l-3,2l-3,3l5-3L237,213z"/>
		<path class="st37" d="M213,222l-2-2h-2l-6-2l0,0l3,2l6,4h1V222z"/>
		<path class="st37" d="M216,222l-3-3l-5-2h-7l5,2l4,2l4,2L216,222z"/>
		<path class="st37" d="M221,224L221,224L221,224h-1c-0.1-0.3-0.1-0.7,0-1h-2c0,2,0,2,0,2h4c-0.1-0.3-0.1-0.7,0-1l0,0H221z"/>
		<path class="st17" d="M199,134c-7,6-9,18-8,22v10c1,4,0,5,0,11s0,11,1,14s11,12,15,14l6,2c4,0.7,8.1,0.3,12-1c0,0,8-3,15-13l5-7
			l0,0c2-3,3-7,4-12v-6c1-4,2-17-1-24S212,121,199,134z"/>
		<path class="st38" d="M216,167h3c1,1,1,3,0,4h-2c-1-1-1-3-2-3h-1c0,1,1,2,1,2h-3v-1h-2v1h-2c-1-1,0-3,1-4l2-2c1.7-2.4,1.7-5.6,0-8
			l-2-2"/>
		<path class="st39" d="M212,172h-2c-0.4-0.6-0.4-1.4,0-2h3C214,171,213,172,212,172z"/>
		<path class="st40" d="M215,172h3v-2h-3C214.6,170.6,214.6,171.4,215,172z"/>
		<path class="st41" d="M224,186c-1,1-4-3-9-3h-6l-5,2l3-4l0,0c0,0,4-2,6-1h10C225,183,225,186,224,186z"/>
		<path class="st41" d="M204,188c3,3,7,6,11,5s9-6,9-5l-3,5l-2,2h-3l-6-2C207.7,191.7,205.7,190,204,188z"/>
		<path class="st42" d="M222,157h-3c-2,1-2,4-2,5c0,1.4,0.3,2.8,1,4"/>
		<path class="st41" d="M206,174c-1.1,2.1-2.9,3.9-5,5c-2.5,1.2-5.3,1.5-8,1h8L206,174z"/>
		<path class="st41" d="M222,173l6,5l0,0C225.6,176.9,223.5,175.2,222,173z"/>
		<path class="st43" d="M232,140h-23l-9,2"/>
		<path class="st44" d="M216,167l3,2l0,0v2h1c0.4-0.6,0.4-1.4,0-2l-2-2H216z"/>
		<path class="st44" d="M221,157c0,0-3,1-4,3c-0.6,0.9-1,1.9-1,3c0,2,2,4,2,4s-1-2-1-4S222,158,221,157z"/>
		<path class="st43" d="M233,146h-21l-11,2"/>
		<path class="st43" d="M232,143h-21l-9,2"/>
		<path class="st45" d="M205,152h-3l-3,2l-2,2l-2,2l-3,2c2.9,0,5.8-1.1,8-3l3-3c3-2,6,0,7-1c0.6-0.9,0.4-2.2-0.5-2.8
			c-0.1-0.1-0.3-0.2-0.5-0.2L205,152z"/>
		<path class="st45" d="M232,155l2,2h-3l-5-2h-6c0-1,1-2,3-2h5C229.5,153.3,230.9,154,232,155z"/>
		<path class="st46" d="M241,153c3.1,3.5,4.3,8.4,3,13l-2,4c1-2.9,1.4-6,1-9c-0.2-1.4-0.5-2.7-1-4L241,153z"/>
		<path class="st29" d="M244,154h-6"/>

			<image style="overflow:visible;opacity:0.5;enable-background:new    ;" width="31" height="20" xlink:href="8D2EF96DE18EAEDF.png"  transform="matrix(1 0 0 1 214 151.0013)">
		</image>
		<path class="st47" d="M221,162c1,2,5,2,8,2h4l5-2c-2.8-2.5-6.3-4.2-10-5h-7C220.1,158.5,220.1,160.5,221,162z"/>
		<path class="st48" d="M221,162c1,2,5,2,8,2h4l5-2c-2.8-2.5-6.3-4.2-10-5h-7C220.1,158.5,220.1,160.5,221,162z"/>
		<path class="st49" d="M233,161c0,1-3,3-5,2h5V161z"/>
		<path d="M229,162h4c0-1.1-0.9-2-2-2C230,160,229,161,229,162z"/>
		<path class="st50" d="M230,162L230,162z"/>
		<path class="st29" d="M245,158h-6"/>
		<path class="st51" d="M246,211c0,0-2-7-6-8s-5,3-13,5c-5.6,1.4-11.6,1-17-1l-6-3c-3.6-2.3-6.7-5.4-9-9l2,2l0,0l2,2
			c3.3,2.9,7,5.2,11,7c3.2,1.4,6.6,2.1,10,2c5.2-0.4,10.2-2.5,14-6l5-6l4-6v-2c1,0-2,7,0,16S247,211,246,211z"/>
		<path class="st29" d="M244,157h-6"/>
		<path class="st29" d="M244,155h-5"/>
		<path class="st29" d="M244,156h-6"/>
		<path class="st29" d="M245,159h-6"/>
		<path class="st46" d="M239,153c3.1,3.5,4.3,8.4,3,13l-2,4c1-2.9,1.4-6,1-9c-0.2-1.4-0.5-2.7-1-4L239,153z"/>
		<path class="st29" d="M245,163h-6"/>
		<path class="st29" d="M245,161h-6"/>
		<path class="st29" d="M245,164h-6"/>
		<path class="st29" d="M245,166h-6"/>
		<path class="st52" d="M224,200c-3.2-1.3-6.6-1.7-10-1l-5,2h6C218,197,224,200,224,200z"/>
		<path class="st53" d="M250,170c-2.2,4-5.3,7.4-9,10c-1,1-3,2-3,4s1,4,2,5l4-5C247.1,179.9,249.1,175.1,250,170z"/>
		<path class="st54" d="M250,165c1-2,3-4,4-4s2,2,2,10c-0.1,2.6-1.2,5.1-3,7c-1,1-3,3-4,2s1-3,1-8S250,168,250,165z"/>
		<path class="st47" d="M251,167v-4h2c0.1,0.7,0.1,1.3,0,2c-0.2,1.4-0.5,2.7-1,4l-2,4l0,0l-2,2l2-2l0,0v-4c0.1-1.3,0.1-2.7,0-4v-2
			h-2v2L251,167z"/>
		<path class="st55" d="M251,173c0,0,0,0,0-1s0-2,0-2h1c0,0,0,1,0,2L251,173z"/>
		<path class="st56" d="M192,180c0.5,1.3,0.8,2.6,1,4c0,0.7,0,1.3,0,2c0,3,3,7,3,7c2.1,3.2,4.8,5.9,8,8l6,3c0,0-5,0-9-3
			c-3.5-2.2-6.3-5.3-8-9c-1-3-2-6-2-10c-0.3-4.4,0-8.7,1-13C192,169,191,176,192,180z"/>
		<path class="st57" d="M210,163h-1c-2.8,2.8-6.2,4.9-10,6l0,0l5-3L210,163z"/>
		<path class="st57" d="M221,164h1c2.7,2.2,5.7,3.8,9,5c6,2,12,0,12,0l-8,2l-5-2L221,164z"/>

			<image style="overflow:visible;opacity:0.5;enable-background:new    ;" width="30" height="21" xlink:href="8D2EF96DE18EAEDD.png"  transform="matrix(1 0 0 1 185 152.0013)">
		</image>
		<path class="st47" d="M208,162c-1,2-4,3-7,4h-9c2.2-3,5.4-5.1,9-6h7C208.1,160.7,208.1,161.3,208,162z"/>
		<path class="st48" d="M208,162c-1,2-4,3-7,4h-9c2.2-3,5.4-5.1,9-6h7C208.1,160.7,208.1,161.3,208,162z"/>
		<path class="st49" d="M207,161c1,1-2,4-5,4h-5c0-1,2-2,2-2h8V161z"/>
		<path d="M204,162h4c0-1.1-0.9-2-2-2C205,160,204,161,204,162z"/>
		<path class="st50" d="M205,162L205,162z"/>
		<path class="st17" d="M237,142c0,5,2,9,4,9s1,0,3-2"/>
		<path class="st58" d="M243,149c0,1.1,0.4,2.1,1,3l4,2c1,1,0,3,0,8s0,5,1,6l3-4h5c1-1,2-3,2-4c0.3-2.4,0-4.8-1-7c-2-4-5-8-6-8
			s0,3-1,5S245,149,243,149z"/>
		<path class="st59" d="M192,146c0,3-3,4-3,7c-0.1,1.7,0.2,3.4,1,5c-1.3-2.1-2-4.5-2-7c0-4,2-8,3-8S192,145,192,146z"/>
		<path class="st53" d="M170,323h-3l-5-2c-4-2-4-5-6-5l-4,2l-5,3l-4,4c0,0,2-5,6-8l4-3h2c4,1,8,4,9,5l3,3h5c2,2,3,5,4,9s1,9,1,9
			S176,325,170,323z"/>
		<path class="st53" d="M163,325h5l3,3c1,1,1,2,2,8s1,5,0,6l-2,2h2c2-2,1-4,0-10s-1-5-2-6l-4-3H163z"/>
		<path class="st54" d="M310,175c1.5-1.3,2.5-3.1,3-5c-0.1-8.8,1.2-17.6,4-26l3-8l-8-19l-2-5h-4v3l2,5l5,12l-7-17l-4-2h-3v4l2,5
			l4,10l-8-15h-3v3l3,7l2,5l-4-10h-4v2l4,12v2l2,5v7l-2,7l-2,8c-1,4-1,7-1,7S304,180,310,175z"/>
		<path class="st60" d="M311,166v-2c3-7,3-12,4-17c1.2-4.8,2.8-9.5,5-14l-2,2h-5c-2,1-4,3-3,4h2c2,1,1,5,1,5L311,166z"/>
		<path class="st61" d="M311,130c0,0-3-5-5-12s-2-5-4-6h-1c-2,0-3,2-3,2h4c2,1,2,5,2,5L311,130z"/>
		<path class="st44" d="M320,135l-6-14l-4-10l0,0c0,0-4,0-5,1s1,6,1,6s-1-2,0-4v-3h2c3,2,3,7,3,7L320,135z"/>
		<path class="st61" d="M301,139c0,0-3-5-5-12c-2-7-2-5-4-6h-1c-2,0-3,2-3,2h4c1,0,2,2,2,5l0,0L301,139z"/>
		<path class="st61" d="M306,134c0,0-3-5-5-12c-2-7-2-5-4-6h-1c-2,0-3,2-3,2h4c1,0,2,2,2,5l0,0L306,134z"/>
		<path class="st53" d="M162,327c0,0,4,2,6,6s1,3,2,7s0,6,0,6h1c1-2,0-6-1-8s-3-7-3-8S162,327,162,327z"/>
		<path class="st53" d="M157,329c0,0,5,2,8,7s0,1,2,7s2,5,1,6h1c1-2,0-5-2-9s-2-6-3-7S157,329,157,329z"/>
		<path class="st21" d="M329,260c4-8,1-19-1-29l-2-9c-3-13-1-17-3-32c0-3-2-23-7-23h-2c-4,2-7,3-12,4s-13-2-15,0s-1,6-1,14
			s-1,9-1,20s2,16,4,44c1,16,1,18,4,21S323,273,329,260z"/>
		<path class="st62" d="M322,218c-3-9-3-9-4-14s0-26-3-27h-8c-5,0-10-2-10-3l11-2h4l4-2l0,0c5,1,7,37,7,37c-0.2,3.7,0.2,7.4,1,11
			l2,8v6c1,9,5,22,8,37s2,21,2,21s-1-6-4-20C329,243,326,230,322,218z"/>
		<path class="st5" d="M324,429c-2-1-7-4-10-2s-1,3-2,6s-2,8-3,12s-4,15-9,19s-26-3-26-3s19,10,36,4c3-1,9-3,14-9s3-5,5-9s4-8,3-10
			S327,431,324,429z"/>
	</g>
</g>
</svg>
