<svg id="Layer_1" data-name="Layer 1" xmlns="http://www.w3.org/2000/svg" xmlns:xlink="http://www.w3.org/1999/xlink" viewBox="0 0 1057.57 769.07">
  <defs>
    <style>
      .cls-1 {
        stroke: #262626;
        stroke-width: 8px;
        fill: url(#linear-gradient);
      }

      .cls-2 {
        fill: url(#linear-gradient-2);
      }

      .cls-3 {
        fill: url(#linear-gradient-3);
      }

      .cls-4 {
        fill: url(#linear-gradient-4);
      }

      .cls-5 {
        fill: url(#linear-gradient-5);
      }

      .cls-6 {
        fill: url(#linear-gradient-6);
      }

      .cls-7 {
        fill: url(#linear-gradient-7);
      }

      .cls-8 {
        fill: url(#linear-gradient-8);
      }

      .cls-9 {
        fill: url(#linear-gradient-9);
      }

      .cls-10 {
        fill: url(#linear-gradient-10);
      }

      .cls-11 {
        fill: url(#linear-gradient-11);
      }

      .cls-12 {
        fill: url(#linear-gradient-12);
      }

      .cls-13 {
        fill: url(#linear-gradient-13);
      }

      .cls-14 {
        fill: url(#linear-gradient-14);
      }

      .cls-15 {
        fill: url(#linear-gradient-15);
      }

      .cls-16 {
        fill: url(#linear-gradient-16);
      }

      .cls-17 {
        fill: url(#linear-gradient-17);
      }

      .cls-18 {
        fill: url(#linear-gradient-18);
      }

      .cls-19 {
        fill: url(#linear-gradient-19);
      }

      .cls-20 {
        fill: #707070;
      }

      .cls-21 {
        fill: none;
      }

      .cls-21, .cls-22, .cls-23, .cls-24 {
        stroke: #1a1a1a;
      }

      .cls-21, .cls-23, .cls-24 {
        stroke-width: 6px;
      }

      .cls-22 {
        fill: #434343;
        stroke-width: 4px;
      }

      .cls-23 {
        fill: #404040;
      }

      .cls-24 {
        fill: #3b3b3b;
      }

      .cls-25 {
        fill: #c5c5c5;
        fill-opacity: 0.28;
      }

      .cls-26 {
        fill: #666;
      }

      .cls-27 {
        fill: #292929;
        fill-opacity: 0.56;
      }

      .cls-28, .cls-29 {
        stroke: #000;
        stroke-miterlimit: 10;
      }

      .cls-29 {
        fill: #fff;
      }
    </style>
    <linearGradient id="linear-gradient" x1="1.26" y1="880.1" x2="24.44" y2="880.1" gradientTransform="matrix(0.98, 0, 0.05, -1.38, -29.59, 1331.55)" gradientUnits="userSpaceOnUse">
      <stop offset="0" stop-color="#333"/>
      <stop offset="1" stop-color="#505050"/>
    </linearGradient>
    <linearGradient id="linear-gradient-2" x1="21.16" y1="880.11" x2="37.44" y2="880.11" gradientTransform="matrix(0.98, 0, 0.05, -1.38, -29.59, 1331.55)" gradientUnits="userSpaceOnUse">
      <stop offset="0" stop-color="#666"/>
      <stop offset="1" stop-color="#3b3b3b"/>
    </linearGradient>
    <linearGradient id="linear-gradient-3" x1="21.16" y1="880.11" x2="37.44" y2="880.11" gradientTransform="matrix(0.98, 0, 0.05, -1.38, 29.03, 1331.55)" xlink:href="#linear-gradient-2"/>
    <linearGradient id="linear-gradient-4" x1="21.16" y1="880.11" x2="37.44" y2="880.11" gradientTransform="matrix(0.98, 0, 0.05, -1.38, 87.66, 1331.55)" xlink:href="#linear-gradient-2"/>
    <linearGradient id="linear-gradient-5" x1="21.16" y1="880.11" x2="37.44" y2="880.11" gradientTransform="matrix(0.98, 0, 0.05, -1.38, 146.28, 1331.55)" xlink:href="#linear-gradient-2"/>
    <linearGradient id="linear-gradient-6" x1="21.16" y1="880.11" x2="37.44" y2="880.11" gradientTransform="matrix(0.98, 0, 0.05, -1.38, 204.91, 1331.55)" xlink:href="#linear-gradient-2"/>
    <linearGradient id="linear-gradient-7" x1="21.16" y1="880.11" x2="37.44" y2="880.11" gradientTransform="matrix(0.98, 0, 0.05, -1.38, 263.54, 1331.55)" xlink:href="#linear-gradient-2"/>
    <linearGradient id="linear-gradient-8" x1="21.16" y1="880.11" x2="37.44" y2="880.11" gradientTransform="matrix(0.98, 0, 0.05, -1.38, 322.16, 1331.55)" xlink:href="#linear-gradient-2"/>
    <linearGradient id="linear-gradient-9" x1="21.16" y1="880.11" x2="37.44" y2="880.11" gradientTransform="matrix(0.98, 0, 0.05, -1.38, 380.79, 1331.55)" xlink:href="#linear-gradient-2"/>
    <linearGradient id="linear-gradient-10" x1="21.16" y1="880.11" x2="37.44" y2="880.11" gradientTransform="matrix(0.98, 0, 0.05, -1.38, 439.41, 1331.55)" xlink:href="#linear-gradient-2"/>
    <linearGradient id="linear-gradient-11" x1="21.16" y1="880.11" x2="37.44" y2="880.11" gradientTransform="matrix(0.98, 0, 0.05, -1.38, 498.04, 1331.55)" xlink:href="#linear-gradient-2"/>
    <linearGradient id="linear-gradient-12" x1="21.16" y1="880.11" x2="37.44" y2="880.11" gradientTransform="matrix(0.98, 0, 0.05, -1.38, 556.66, 1331.55)" xlink:href="#linear-gradient-2"/>
    <linearGradient id="linear-gradient-13" x1="21.16" y1="880.11" x2="37.44" y2="880.11" gradientTransform="matrix(0.98, 0, 0.05, -1.38, 615.29, 1331.55)" xlink:href="#linear-gradient-2"/>
    <linearGradient id="linear-gradient-14" x1="21.16" y1="880.11" x2="37.44" y2="880.11" gradientTransform="matrix(0.98, 0, 0.05, -1.38, 673.92, 1331.55)" xlink:href="#linear-gradient-2"/>
    <linearGradient id="linear-gradient-15" x1="21.16" y1="880.11" x2="37.44" y2="880.11" gradientTransform="matrix(0.98, 0, 0.05, -1.38, 732.53, 1331.55)" xlink:href="#linear-gradient-2"/>
    <linearGradient id="linear-gradient-16" x1="21.16" y1="880.11" x2="37.44" y2="880.11" gradientTransform="matrix(0.98, 0, 0.05, -1.38, 791.16, 1331.55)" xlink:href="#linear-gradient-2"/>
    <linearGradient id="linear-gradient-17" x1="21.16" y1="880.11" x2="37.44" y2="880.11" gradientTransform="matrix(0.98, 0, 0.05, -1.38, 849.79, 1331.55)" xlink:href="#linear-gradient-2"/>
    <linearGradient id="linear-gradient-18" x1="21.16" y1="880.11" x2="37.44" y2="880.11" gradientTransform="matrix(0.98, 0, 0.05, -1.38, 908.42, 1331.55)" xlink:href="#linear-gradient-2"/>
    <linearGradient id="linear-gradient-19" x1="21.16" y1="880.11" x2="37.44" y2="880.11" gradientTransform="matrix(0.98, 0, 0.05, -1.38, 967.02, 1331.55)" xlink:href="#linear-gradient-2"/>
  </defs>
  <title>stage</title>
  <g>
    <path class="cls-1" d="M24.47,5.61c-2.45,0-4.54,3.21-4.68,7.17L12.28,218.47a9.54,9.54,0,0,0,1.08,5C16.55,212.09,24,204,32.36,204c8.9,0,16.05,9.14,18,21.63H71.43C74.24,213.1,82.07,204,91,204s16.05,9.14,18,21.63h21.14C132.88,213.1,140.7,204,149.6,204s16.05,9.14,18,21.63H188.7C191.52,213.1,199.34,204,208.24,204s16,9.14,17.93,21.63H247.3C250.12,213.1,257.95,204,266.84,204s16.05,9.14,18,21.63h21.14C308.76,213.1,316.58,204,325.48,204s16.05,9.14,18,21.63h21.14C367.39,213.1,375.19,204,384.08,204s16.05,9.14,18,21.63h21.14C426,213.1,433.82,204,442.72,204s16.05,9.14,18,21.63h21.14C484.64,213.1,492.46,204,501.36,204s16.05,9.14,18,21.63h21.11C543.24,213.1,551.07,204,560,204s16.05,9.14,18,21.63h21.14C601.88,213.1,609.71,204,618.6,204s16.05,9.14,18,21.63H657.7C660.52,213.1,668.34,204,677.24,204s16.05,9.14,18,21.63h21.11C719.12,213.1,726.95,204,735.85,204s16.05,9.14,18,21.63h21.14C777.76,213.1,785.59,204,794.48,204s16.05,9.14,18,21.63h21.14C836.4,213.1,844.22,204,853.12,204s16,9.14,17.93,21.63h21.14C895,213.1,902.83,204,911.72,204s16.05,9.14,18,21.63h21.14C953.64,213.1,961.46,204,970.36,204s16.05,9.14,18,21.63h21.14C1012.27,213.1,1020.07,204,1029,204c5.63,0,10.54,3.66,13.89,9.5l7.33-200.68c.14-4-1.71-7.17-4.16-7.17H24.47Z" transform="translate(3.38 0)"/>
    <path id="a" class="cls-2" d="M33.25,5.61C22.11,46.66,14.55,176.77,12.37,220.14a8.71,8.71,0,0,0,1,3.32c3.19-11.38,10.62-19.52,19-19.52,8.9,0,16.05,9.14,18,21.63h.77c1.24-34,6-176.43-4-220H33.25Z" transform="translate(3.38 0)"/>
    <path id="a-2" data-name="a" class="cls-3" d="M91.87,5.61C80.74,46.66,73.17,176.77,71,220.14a8.71,8.71,0,0,0,1,3.32c3.19-11.38,10.62-19.52,19-19.52,8.9,0,16.05,9.14,18,21.63h.77c1.24-34,6-176.43-4-220H91.87Z" transform="translate(3.38 0)"/>
    <path id="a-3" data-name="a" class="cls-4" d="M150.49,5.61c-11.13,41.06-18.7,171.17-20.87,214.53a8.71,8.71,0,0,0,1,3.32c3.19-11.38,10.62-19.52,19-19.52,8.9,0,16.05,9.14,18,21.63h.77c1.24-34,6-176.43-4-220H150.49Z" transform="translate(3.38 0)"/>
    <path id="a-4" data-name="a" class="cls-5" d="M209.12,5.61C198,46.66,190.42,176.77,188.25,220.14a8.71,8.71,0,0,0,1,3.32c3.19-11.38,10.62-19.52,19-19.52,8.9,0,16.05,9.14,18,21.63H227c1.24-34,6-176.43-4-220H209.12Z" transform="translate(3.38 0)"/>
    <path id="a-5" data-name="a" class="cls-6" d="M267.75,5.61C256.62,46.66,249,176.77,246.88,220.14a8.71,8.71,0,0,0,1,3.32c3.19-11.38,10.62-19.52,19-19.52,8.9,0,16.05,9.14,18,21.63h.77c1.24-34,6-176.43-4-220H267.75Z" transform="translate(3.38 0)"/>
    <path id="a-6" data-name="a" class="cls-7" d="M326.38,5.61c-11.13,41.06-18.7,171.17-20.87,214.53a8.71,8.71,0,0,0,1,3.32c3.19-11.38,10.62-19.52,19-19.52,8.9,0,16.05,9.14,18,21.63h.77c1.24-34,6-176.43-4-220H326.38Z" transform="translate(3.38 0)"/>
    <path id="a-7" data-name="a" class="cls-8" d="M385,5.61c-11.13,41.06-18.7,171.17-20.87,214.53a8.71,8.71,0,0,0,1,3.32c3.19-11.38,10.62-19.52,19-19.52,8.9,0,16.05,9.14,18,21.63h.77c1.24-34,6-176.43-4-220H385Z" transform="translate(3.38 0)"/>
    <path id="a-8" data-name="a" class="cls-9" d="M443.62,5.61c-11.13,41.06-18.7,171.17-20.87,214.53a8.71,8.71,0,0,0,1,3.32c3.19-11.38,10.62-19.52,19-19.52,8.9,0,16.05,9.14,18,21.63h.77c1.24-34,6-176.43-4-220H443.62Z" transform="translate(3.38 0)"/>
    <path id="a-9" data-name="a" class="cls-10" d="M502.25,5.61c-11.13,41.06-18.7,171.17-20.87,214.53a8.71,8.71,0,0,0,1,3.32c3.19-11.38,10.62-19.52,19-19.52,8.9,0,16.05,9.14,18,21.63h.77c1.24-34,6-176.43-4-220H502.25Z" transform="translate(3.38 0)"/>
    <path id="a-10" data-name="a" class="cls-11" d="M560.88,5.61C549.75,46.66,542.18,176.77,540,220.14a8.71,8.71,0,0,0,1,3.32c3.19-11.38,10.62-19.52,19-19.52,8.9,0,16.05,9.14,18,21.63h.77c1.24-34,6-176.43-4-220H560.88Z" transform="translate(3.38 0)"/>
    <path id="a-11" data-name="a" class="cls-12" d="M619.5,5.61c-11.13,41.06-18.7,171.17-20.87,214.53a8.71,8.71,0,0,0,1,3.32c3.19-11.38,10.62-19.52,19-19.52,8.9,0,16.05,9.14,18,21.63h.77c1.24-34,6-176.43-4-220H619.5Z" transform="translate(3.38 0)"/>
    <path id="a-12" data-name="a" class="cls-13" d="M678.13,5.61C667,46.66,659.43,176.77,657.25,220.14a8.71,8.71,0,0,0,1,3.32c3.19-11.38,10.62-19.52,19-19.52,8.9,0,16.05,9.14,18,21.63H696c1.24-34,6-176.43-4-220H678.13Z" transform="translate(3.38 0)"/>
    <path id="a-13" data-name="a" class="cls-14" d="M736.75,5.61c-11.13,41.06-18.7,171.17-20.87,214.53a8.71,8.71,0,0,0,1,3.32c3.19-11.38,10.62-19.52,19-19.52,8.9,0,16.05,9.14,18,21.63h.77c1.24-34,6-176.43-4-220H736.75Z" transform="translate(3.38 0)"/>
    <path id="a-14" data-name="a" class="cls-15" d="M795.37,5.61c-11.13,41.06-18.7,171.17-20.87,214.53a8.71,8.71,0,0,0,1,3.32c3.19-11.38,10.62-19.52,19-19.52,8.9,0,16.05,9.14,18,21.63h.77c1.24-34,6-176.43-4-220H795.37Z" transform="translate(3.38 0)"/>
    <path id="a-15" data-name="a" class="cls-16" d="M854,5.61c-11.13,41.06-18.7,171.17-20.87,214.53a8.71,8.71,0,0,0,1,3.32c3.19-11.38,10.62-19.52,19-19.52,8.9,0,16.05,9.14,18,21.63h.77c1.24-34,6-176.43-4-220H854Z" transform="translate(3.38 0)"/>
    <path id="a-16" data-name="a" class="cls-17" d="M912.63,5.61c-11.13,41.06-18.7,171.17-20.87,214.53a8.71,8.71,0,0,0,1,3.32c3.19-11.38,10.62-19.52,19-19.52,8.9,0,16.05,9.14,18,21.63h.77c1.24-34,6-176.43-4-220H912.63Z" transform="translate(3.38 0)"/>
    <path id="a-17" data-name="a" class="cls-18" d="M971.26,5.61c-11.13,41.06-18.7,171.17-20.87,214.53a8.71,8.71,0,0,0,1,3.32c3.19-11.38,10.62-19.52,19-19.52,8.9,0,16.05,9.14,18,21.63h.77c1.24-34,6-176.43-4-220H971.26Z" transform="translate(3.38 0)"/>
    <path id="a-18" data-name="a" class="cls-19" d="M1029.86,5.61c-11.13,41.06-18.7,171.17-20.87,214.53a8.71,8.71,0,0,0,1,3.32c3.19-11.38,10.62-19.52,19-19.52,8.9,0,16.05,9.14,18,21.63h.77c1.24-34,6-176.43-4-220h-13.81Z" transform="translate(3.38 0)"/>
  </g>
  <image width="1890" height="232" transform="translate(0 504.94) scale(0.56)" xlink:href="../floor.jpg"/>
  <g>
    <path class="cls-20" d="M3.3,3S.47,551.58,11.9,665.87s11.42,85.69,22.84,85.69,28.59-20,42.87-11.41,37.13,0,48.56-14.28,31.42,11.41,54.28-2.87-8.57-14.28-54.28-54.28S80.45,537.28,69,451.56c-10.5-78.74.7-34.57.38-66.72a5.21,5.21,0,0,0,2.75-4.78V339.12c14-34.88,76.27-93.88,331.16-336.12H3.3Z" transform="translate(3.38 0)"/>
    <path class="cls-21" d="M403.32,3C57.61,331.57,66.18,323,69,374.43s-11.43-8.57,0,77.14,11.43,177.14,57.14,217.14,77.14,40,54.29,54.29-42.86-11.43-54.29,2.86S91.89,748.71,77.6,740.14s-31.43,11.43-42.86,11.43-11.43,28.57-22.86-85.71S3.32,3,3.32,3h400Z" transform="translate(3.38 0)"/>
    <path class="cls-22" d="M11.56,332.58h56.1c2.49,0,4.5,2.31,4.5,5.16v42.33c0,2.85-2,5.16-4.5,5.16H11.56c-2.49,0-4.5-2.31-4.5-5.16V337.74c0-2.85,2-5.16,4.5-5.16" transform="translate(3.38 0)"/>
    <path class="cls-23" d="M57,326.32c0-2.78,7.65-17.53,13.88-26.75,12.43-18.42,35.65-45.93,86-101.86,55.9-62.13,78.74-92,83.4-109,1.31-4.78,2.87-21.74,3.46-37.69s1.62-32.45,2.28-36.67l1.2-7.68,75-.44,75-.44-5.1,4.9c-2.81,2.7-47.71,45.45-99.78,95C156.39,235.1,95.75,296.43,80.52,319.94c-5.31,8.19-5.45,8.27-14.46,8.27-5.5,0-9.09-.74-9.09-1.88Z" transform="translate(3.38 0)"/>
    <path class="cls-23" d="M38.22,326.93c0-2.92,8.49-38.36,11.81-49.5,2.62-8.81,5.55-14.23,11-20.28,13.21-14.78,22.41-28.66,32.15-48.49,30.52-62.17,50-129.32,53.58-184.8L147.88,5.8h97l-1,6.4a490.06,490.06,0,0,0-4.43,57.66c0,15.14-.32,16.56-6.55,28.6-10,19.26-28.3,42-81.25,101C86.78,271.62,69.16,293.59,59,315L52.7,328.2H45.45c-4,0-7.24-.57-7.23-1.27Z" transform="translate(3.38 0)"/>
    <path class="cls-23" d="M15.56,321.81c12.3-15.92,17.08-27.57,26.76-65.25,4-15.48,17-58,28.95-94.44C99.47,76,104.66,55.89,106,27.55L107,5.8h19.36c10.65,0,19.36.58,19.35,1.28,0,7.13-4.14,43.66-6.18,55-12.91,71.69-47.77,157-77.74,190.2-10.68,11.83-12.19,15.37-19.37,45.29-3.48,14.49-6.58,27.32-6.9,28.49-.4,1.45-4.46,2.13-12.72,2.13H10.62l4.94-6.4Z" transform="translate(3.38 0)"/>
    <path class="cls-23" d="M5.85,262l-.06-67,16.46-50.67C47.47,66.72,56.41,37.92,60.47,21.16L64.19,5.81h41.06l-1.07,17.51c-2,33.27-5.07,44.94-39.19,150.52-12.73,39.4-25.18,80.47-27.66,91.26-5.07,22-15.81,46.16-25.43,57.15l-6,6.82-.06-67Z" transform="translate(3.38 0)"/>
    <path class="cls-23" d="M5.79,94.79v-89H33.08c25.31,0,27.29.23,27.29,3.12,0,6.07-11.92,46.26-32.45,109.46C16.49,153.57,6.83,182.68,6.46,183.07s-.67-39.33-.67-88.28h0Z" transform="translate(3.38 0)"/>
    <path class="cls-24" d="M149.93,722.25c-6.57-1.82-13.93-3.34-16.36-3.36-10.07-.1-40-26.91-49.09-44-5.8-10.88-21.1-88.25-31-156.5C40.54,428.5,39.21,409.58,45,396.87l3.29-7.25h9.66c10.55,0,10.39-.32,5.77,11.13-1.74,4.32-.92,15.43,5,68.23,12.5,110.86,17.76,138.52,32,168,10.67,22.09,28,39.34,60.79,60.41,15.81,10.16,23.37,16,23,17.78-.67,3.47-9.19,8.31-16.71,9.48-3.51.55-10.9-.44-17.91-2.39h0Z" transform="translate(3.38 0)"/>
    <path class="cls-24" d="M79.91,738.62a32.23,32.23,0,0,1-9.65-7.55C57.49,715.89,38.08,627.94,28.9,543.66,23.6,495,22,425.34,25.57,396.87l.9-7.25H44.85l-2.28,5.54c-6,14.68-5.33,26.25,6.88,111.31,11,76.69,19.7,125,28,155.84,3.22,11.91,5.45,16.27,13.55,26.44,11.11,14,18.89,21.16,29.72,27.51l7.61,4.46-7.26,6.69c-13.31,12.27-29,16.53-41.18,11.21h0Z" transform="translate(3.38 0)"/>
    <path class="cls-24" d="M23.09,740.64C15.23,694.53,10.18,618.08,8.41,518.41c-.52-29.08-1.37-70-1.9-90.84l-1-38H22.62l-1,33.69c-1.12,38.91,1.62,96.87,6.43,135.68C37.54,635.35,54.9,712.91,66.3,729.7c3.72,5.49,3.86,6.2,1.18,6.2-1.66,0-9.12,2.95-16.58,6.55s-16.35,7.08-19.77,7.72l-6.21,1.16-1.83-10.71Z" transform="translate(3.38 0)"/>
    <path class="cls-25" d="M58.37,329.34a25.44,25.44,0,0,0,7.69.88c9,0,9.16-.09,14.47-8.28,15.23-23.51,75.87-84.83,211.84-214.25,52.07-49.56,97-92.3,99.78-95l5.09-4.91-75,.44-5.28,0c-1.32,4.37-2.65,8.74-4,12.78-1.8,5.37-3.63,10.45-5.53,15.34s-3.87,9.61-5.94,14.16-4.25,8.91-6.56,13.22-4.73,8.53-7.34,12.72-5.4,8.35-8.37,12.53-6.16,8.42-9.56,12.72-7,8.69-10.94,13.22-8.1,9.21-12.56,14.09c-8.93,9.76-19.05,20.32-30.62,32.19s-24.61,25-39.34,39.94q-11.48,11.61-22.72,23.5c-7.48,7.91-14.87,15.87-22.12,23.78-14.51,15.83-28.51,31.49-41.81,46.37-11,12.34-21.2,23.65-31.12,34.53Z" transform="translate(3.38 0)"/>
    <path class="cls-26" d="M199.08,8.37c-4.62,34.32,1.67,72.59-15.27,102.46C140.76,186.75,83.95,256.92,41.55,328a36,36,0,0,0,3.91.19h7.25L59,315.1c45.91-80.33,126.83-135.3,173.94-214.81,6.23-11.94,6.56-13.34,6.56-28.37a482.34,482.34,0,0,1,4.44-57.2l1-6.36H199.08Z" transform="translate(3.38 0)"/>
    <path class="cls-26" d="M131.33,17.09a474,474,0,0,1-23.2,114.19c-13.76,40.65-16.78,71.65-42.76,106.21C50.6,254,37.25,287.31,32.48,309c-13.31,17.91-8,16.1,3,17.08,5.83-20.67,8.26-42.54,17.32-62.14,8.87-12.79,20.27-23.82,27.57-37.77C107.54,179,125.54,127,137.18,74c4.54-22,6-42.76,7.61-65.17-16.51.12-14.42-.21-13.46,8.3Z" transform="translate(3.38 0)"/>
    <path class="cls-26" d="M80,5.81C80.85,29,81.68,53.7,81.68,64c0,16.81-31.79,131.17-75.81,198.22l.06,66.81,6-6.81c9.62-11,20.37-35.14,25.44-57.16C39.82,254.3,52.26,213.24,65,173.84,99.1,68.26,102.14,56.58,104.18,23.31l1.06-17.5H80Z" transform="translate(3.38 0)"/>
    <path class="cls-20" d="M64.37,389.81,63,392.87c-5.77,12.71-8.07,32.53,4.91,122.44,9.85,68.25,11.87,121.5,34.56,155.6,10.71,16.1,39,43.9,49.09,44,2.43,0,9.81,1.52,16.38,3.34a75.94,75.94,0,0,0,11.28,2.25c2.92-1.73,5-3.69,5.34-5.34s-7.23-7.62-23-17.78c-32.77-21.07-50.11-38.32-60.78-60.41-14.23-29.47-19.5-57.11-32-168-6-52.8-6.77-63.93-5-68.25,3.33-8.25,4.3-10.39.66-10.94Z" transform="translate(3.38 0)"/>
    <path class="cls-20" d="M31.87,389.62l-.25,3.25c-2.2,28.48,2.65,98.09,10.25,146.78C55,623.94,78.59,711.87,92.09,727.06a34.64,34.64,0,0,0,10,7.56,27.74,27.74,0,0,0,6.13,1.81,56.89,56.89,0,0,0,12.84-9l7.25-6.72-7.59-4.44c-10.83-6.35-18.61-13.58-29.72-27.53-8.1-10.17-10.34-14.53-13.56-26.44-8.33-30.8-17-79.15-28-155.84-12.2-85.05-12.95-96.63-6.91-111.31l2.28-5.53h-13Z" transform="translate(3.38 0)"/>
    <path class="cls-26" d="M12.21,338.87l-5.16,5.63v35.56a5.75,5.75,0,0,0,.75,2.81c.84.64,3-.48,5-2.59l29.37-31.94A12.33,12.33,0,0,0,43.84,346a40.91,40.91,0,0,0-4.12-4c-6,4.83-10.91,9.59-11.69,11.28-1.1,2.38-2.71-6.47-15.81-14.47Z" transform="translate(3.38 0)"/>
    <path class="cls-27" d="M37.6,362.87c-1.53-.23-5.26,13.18-28.81,20.94a4,4,0,0,0,1.06.16H63.32c-10.55-5.77-24-17.81-25.37-20.72-.11-.24-.21-.35-.34-.37Z" transform="translate(3.38 0)"/>
    <path class="cls-27" d="M33.68,333.56a4.08,4.08,0,0,0-2.53.88H11.93a4.32,4.32,0,0,0-3.69,2.19c16.83,8.46,18.58,19.33,19.78,16.72.78-1.69,5.68-6.45,11.69-11.28,7.91,6.61,9.15,12.39,10.06,10.41,1.21-2.63,12.36-12.73,22.28-18.91H33.68Z" transform="translate(3.38 0)"/>
  </g>
  <g>
    <path class="cls-20" d="M1049.06,3s2.83,548.59-8.59,662.88-11.42,85.69-22.84,85.69-28.59-20-42.87-11.41-37.13,0-48.56-14.28S894.76,737.29,871.9,723s8.57-14.28,54.28-54.28,45.73-131.44,57.16-217.16c10.5-78.74-.7-34.57-.37-66.72a5.21,5.21,0,0,1-2.75-4.78V339.12c-14-34.88-76.27-93.88-331.16-336.12h400Z" transform="translate(3.38 0)"/>
    <path class="cls-21" d="M649,3C994.75,331.57,986.18,323,983.33,374.43s11.43-8.57,0,77.14S971.9,628.71,926.19,668.71,849,708.71,871.9,723s42.86-11.43,54.29,2.86,34.29,22.86,48.57,14.29,31.43,11.43,42.86,11.43,11.43,28.57,22.86-85.71S1049,3,1049,3H649Z" transform="translate(3.38 0)"/>
    <path class="cls-22" d="M1040.8,332.58H984.7c-2.49,0-4.5,2.31-4.5,5.16v42.33c0,2.85,2,5.16,4.5,5.16h56.1c2.49,0,4.5-2.31,4.5-5.16V337.74c0-2.85-2-5.16-4.5-5.16" transform="translate(3.38 0)"/>
    <path class="cls-23" d="M995.4,326.32c0-2.78-7.65-17.53-13.88-26.75-12.43-18.42-35.65-45.93-86-101.86-55.9-62.13-78.74-92-83.4-109C810.83,83.92,809.27,67,808.67,51s-1.62-32.45-2.28-36.67l-1.2-7.68-75-.44-75-.44,5.1,4.9c2.81,2.7,47.71,45.45,99.78,95C896,235.1,956.61,296.43,971.84,319.94c5.31,8.19,5.45,8.27,14.46,8.27,5.5,0,9.09-.74,9.09-1.88Z" transform="translate(3.38 0)"/>
    <path class="cls-23" d="M1014.14,326.93c0-2.92-8.49-38.36-11.81-49.5-2.62-8.81-5.55-14.23-11-20.28-13.21-14.78-22.41-28.66-32.15-48.49-30.52-62.17-50-129.32-53.58-184.8L904.48,5.8h-97l1,6.4a490.06,490.06,0,0,1,4.43,57.66c0,15.14.32,16.56,6.55,28.6,10,19.26,28.3,42,81.25,101,64.9,72.21,82.52,94.17,92.69,115.57l6.29,13.21h7.25c4,0,7.24-.57,7.23-1.27Z" transform="translate(3.38 0)"/>
    <path class="cls-23" d="M1036.8,321.81c-12.3-15.92-17.08-27.57-26.76-65.25-4-15.48-17-58-28.95-94.44C952.89,76,947.7,55.89,946.4,27.55l-1-21.75H926.05c-10.65,0-19.36.58-19.35,1.28,0,7.13,4.14,43.66,6.18,55,12.91,71.69,47.77,157,77.74,190.2,10.68,11.83,12.19,15.37,19.37,45.29,3.48,14.49,6.58,27.32,6.9,28.49.4,1.45,4.46,2.13,12.72,2.13h12.14l-4.94-6.4Z" transform="translate(3.38 0)"/>
    <path class="cls-23" d="M1046.51,262l.06-67-16.46-50.67C1004.89,66.72,996,37.92,991.89,21.16L988.17,5.81H947.11l1.07,17.51c2,33.27,5.07,44.94,39.19,150.52,12.73,39.4,25.18,80.47,27.66,91.26,5.07,22,15.81,46.16,25.43,57.15l6,6.82.06-67Z" transform="translate(3.38 0)"/>
    <path class="cls-23" d="M1046.57,94.79v-89h-27.29C994,5.81,992,6,992,8.93c0,6.07,11.92,46.26,32.45,109.46,11.43,35.18,21.09,64.29,21.46,64.68s.67-39.33.67-88.28h0Z" transform="translate(3.38 0)"/>
    <path class="cls-24" d="M902.43,722.25c6.57-1.82,13.93-3.34,16.36-3.36,10.07-.1,40-26.91,49.09-44,5.8-10.88,21.1-88.25,31-156.5,13-89.91,14.31-108.83,8.54-121.54l-3.29-7.25h-9.66c-10.55,0-10.39-.32-5.77,11.13,1.74,4.32.92,15.43-5,68.23-12.5,110.86-17.76,138.52-32,168-10.67,22.09-28,39.34-60.79,60.41-15.81,10.16-23.37,16-23,17.78.67,3.47,9.19,8.31,16.71,9.48,3.51.55,10.9-.44,17.91-2.39h0Z" transform="translate(3.38 0)"/>
    <path class="cls-24" d="M972.45,738.62a32.23,32.23,0,0,0,9.65-7.55c12.78-15.18,32.18-103.13,41.36-187.41,5.3-48.69,6.88-118.32,3.33-146.79l-.9-7.25h-18.38l2.28,5.54c6,14.68,5.33,26.25-6.88,111.31-11,76.69-19.7,125-28,155.84-3.22,11.91-5.45,16.27-13.55,26.44-11.11,14-18.89,21.16-29.72,27.51L924,720.72l7.26,6.69c13.31,12.27,29,16.53,41.18,11.21h0Z" transform="translate(3.38 0)"/>
    <path class="cls-24" d="M1029.27,740.64c7.86-46.11,12.92-122.56,14.68-222.23.52-29.08,1.37-70,1.9-90.84l1-38h-17.07l1,33.69c1.12,38.91-1.62,96.87-6.43,135.68-9.46,76.36-26.82,153.92-38.22,170.71-3.72,5.49-3.86,6.2-1.18,6.2,1.66,0,9.12,2.95,16.58,6.55s16.35,7.08,19.77,7.72l6.21,1.16,1.83-10.71Z" transform="translate(3.38 0)"/>
    <path class="cls-25" d="M994,329.34a25.44,25.44,0,0,1-7.69.88c-9,0-9.16-.09-14.47-8.28C956.6,298.42,896,237.1,760,107.68c-52.07-49.56-97-92.3-99.78-95l-5.09-4.91,75,.44,5.28,0c1.32,4.37,2.65,8.74,4,12.78,1.8,5.37,3.63,10.45,5.53,15.34s3.87,9.61,5.94,14.16,4.25,8.91,6.56,13.22,4.73,8.53,7.34,12.72,5.4,8.35,8.38,12.53,6.16,8.42,9.56,12.72,7,8.69,10.94,13.22,8.1,9.21,12.56,14.09c8.93,9.76,19.05,20.32,30.63,32.19s24.61,25,39.34,39.94q11.48,11.61,22.72,23.5c7.48,7.91,14.87,15.87,22.13,23.78,14.51,15.83,28.51,31.49,41.81,46.37,11,12.34,21.2,23.65,31.13,34.53Z" transform="translate(3.38 0)"/>
    <path class="cls-26" d="M853.28,8.37c4.62,34.32-1.67,72.59,15.27,102.46,43.05,75.92,99.87,146.09,142.26,217.2a36,36,0,0,1-3.91.19h-7.25l-6.28-13.11c-45.91-80.33-126.83-135.3-173.94-214.81-6.23-11.94-6.56-13.34-6.56-28.37a482.34,482.34,0,0,0-4.44-57.2l-1-6.36h45.82Z" transform="translate(3.38 0)"/>
    <path class="cls-26" d="M921,17.09a474,474,0,0,0,23.2,114.19C958,171.94,961,202.93,987,237.49c14.77,16.49,28.12,49.82,32.89,71.51,13.31,17.91,8,16.1-3,17.08-5.83-20.67-8.26-42.54-17.32-62.14-8.87-12.79-20.27-23.82-27.57-37.77C944.82,179,926.82,127,915.18,74c-4.54-22-6-42.76-7.61-65.17,16.51.12,14.42-.21,13.46,8.3Z" transform="translate(3.38 0)"/>
    <path class="cls-26" d="M972.37,5.81C971.51,29,970.68,53.7,970.68,64c0,16.81,31.79,131.17,75.81,198.22l-.06,66.81-6-6.81c-9.62-11-20.37-35.14-25.44-57.16-2.48-10.79-14.92-51.85-27.66-91.25C953.26,68.26,950.22,56.58,948.18,23.31l-1.06-17.5h25.25Z" transform="translate(3.38 0)"/>
    <path class="cls-20" d="M988,389.81l1.38,3.06c5.77,12.71,8.07,32.53-4.91,122.44-9.85,68.25-11.87,121.5-34.56,155.6-10.71,16.1-39,43.9-49.09,44-2.43,0-9.81,1.52-16.37,3.34a75.94,75.94,0,0,1-11.28,2.25c-2.92-1.73-5-3.69-5.34-5.34s7.23-7.62,23-17.78C923.6,676.31,941,659.06,951.62,637c14.23-29.47,19.5-57.11,32-168,6-52.8,6.77-63.93,5-68.25-3.33-8.25-4.3-10.39-.66-10.94Z" transform="translate(3.38 0)"/>
    <path class="cls-20" d="M1020.49,389.62l.25,3.25c2.2,28.48-2.65,98.09-10.25,146.78-13.16,84.29-36.73,172.22-50.22,187.41a34.64,34.64,0,0,1-10,7.56,27.74,27.74,0,0,1-6.12,1.81,56.89,56.89,0,0,1-12.84-9L924,720.72l7.59-4.44c10.83-6.35,18.61-13.58,29.72-27.53,8.1-10.17,10.34-14.53,13.56-26.44,8.33-30.8,17-79.15,28-155.84,12.2-85.05,12.95-96.63,6.91-111.31l-2.28-5.53h13Z" transform="translate(3.38 0)"/>
    <path class="cls-26" d="M1040.15,338.87l5.16,5.63v35.56a5.75,5.75,0,0,1-.75,2.81c-.84.64-3-.48-5-2.59l-29.37-31.94a12.33,12.33,0,0,1-1.69-2.31,40.91,40.91,0,0,1,4.13-4c6,4.83,10.91,9.59,11.69,11.28,1.1,2.38,2.71-6.47,15.81-14.47Z" transform="translate(3.38 0)"/>
    <path class="cls-27" d="M1014.76,362.87c1.53-.23,5.26,13.18,28.81,20.94a4,4,0,0,1-1.06.16H989c10.55-5.77,24-17.81,25.37-20.72.11-.24.21-.35.34-.37Z" transform="translate(3.38 0)"/>
    <path class="cls-27" d="M1018.68,333.56a4.08,4.08,0,0,1,2.53.88h19.22a4.32,4.32,0,0,1,3.69,2.19c-16.83,8.46-18.58,19.33-19.78,16.72-.78-1.69-5.68-6.45-11.69-11.28-7.91,6.61-9.15,12.39-10.06,10.41-1.21-2.63-12.36-12.73-22.28-18.91h38.37Z" transform="translate(3.38 0)"/>
  </g>
  <path class="cls-28" d="M1049.56,768.57H1.87V643H156c-7.83-41.33,2.27-61.72,22-70,1.06-.44,11.14-4.47,21,0,18.31,8.31,26.32,28.65,16,70h90.65c4.12,0,3.45-7.71-.65-8-21.21-1.5-15.6-54.24,6.67-62a20.2,20.2,0,0,1,13.5,0c23.32,7.78,24,62.5,4,62-3.78-.1-4.44,8-.67,8h721.07Z" transform="translate(3.38 0)"/>
  <rect class="cls-29" x="520.47" y="635.08" width="1.5" height="7.5"/>
  <path class="cls-28" d="M1051,643V768.57H511.87V643H666c-7.83-41.32,2.27-61.72,22-70,1.06-.44,11.14-4.47,21,0,18.31,8.31,26.32,28.65,16,70h90.65c4.12,0,3.46-7.71-.65-8-21.21-1.5-15.6-54.23,6.67-62a20.28,20.28,0,0,1,13.5,0c23.32,7.79,24,62.51,4,62-3.78-.09-4.45,8-.67,8Z" transform="translate(3.38 0)"/>
</svg>
